<svg xmlns="http://www.w3.org/2000/svg" viewBox="0 0 175 93"><defs><style>.cls-1{fill:#1d1e1c}.cls-5{fill:#fff}.cls-9{fill:#507f3a}.cls-10{fill:#f9bf2b}.cls-12{fill:#1d1d1b}</style></defs><path class="cls-1" d="M115.05 39c-3.6-5.8-3.2-14.7-6.8-22.1s-6.4-8.3-9.6-8.4l-1.4-1-.9-.5s.7 4.9-.7 7.2c-1.3 2.1-1.9 5.9-2 6.6l-.1.1a13.74 13.74 0 0 0-3.2 1.4c-2.3 1.4-3.4 2-3.4 2a24.13 24.13 0 0 0 3.2.5 7.08 7.08 0 0 0 1.4-.1 18.18 18.18 0 0 0-.4 5.6c.2 3.6-2.1 3.7-4.7 9.8-2.3 5.5-3.2 9.8-1.5 19.3s6.9 9.4 6.2 13.2c-.9 4.3-4.6 10.3-4.3 14.2.8 8.8 20.7 6.4 21.6.9.7-4.6-3.8-12.3-3-15.3s6.8-2.1 9.3-9.3c3.3-9.1 3.9-18.41.3-24.1z"/><path d="M100.85 10.89a11.7 11.7 0 0 0-2-.5 6 6 0 0 1-.7 2.7c-1.2 2.3-2 3.8-2 5.9v.7q1.5-.3 3.9-.6a14.61 14.61 0 0 1 5.9.4s-.5-6.6-5.1-8.6z" fill-rule="evenodd" fill="#f5c949"/><path d="M83.58 69.13c1.2 0 35.58-.36 37.78-.46s8.39-1.78 8.69-1.58a11 11 0 0 0-1-1.1c-.5-.4-.1-1.2-.7-1.1a18.93 18.93 0 0 0-3.5.7c-1.5.5-2.9.4-5.4.2s-4.6-.7-6.2-.9a82.92 82.92 0 0 0-12.5-.4c-4.9.2-11.2 0-13.7.9a12.56 12.56 0 0 1-3.8 1 22.86 22.86 0 0 0-2.5.2c-1 .2-2.4.2-2.6.5s.6.5 1 1.1a5 5 0 0 0 .7.8c0-.2 2.63.14 3.73.14z" fill="#60442b"/><path d="M101.25 13.09c.8.4 1.8 1.7 1.4 2.7a2.87 2.87 0 0 1-3.1 1.7c-.4 0-1.2-1.2-1.3-1.9a2.76 2.76 0 0 1 .5-2.1 2.37 2.37 0 0 1 2.5-.4z" fill-rule="evenodd" fill="#1d1e1c"/><path class="cls-5" d="M100.65 14.89a.5.5 0 1 1-.5-.5.47.47 0 0 1 .5.5z"/><path d="M79.75 68.89c-.1.1 1.1 1.2 1.4 1.2s1.2.1 1.8.1a17.83 17.83 0 0 0 2.2-.4c1.2-.2 4.4-.2 6.4-.4s15.5-.4 17.5-.4 2.7 0 3.9.1 3 .4 4.5.4 2.5-.1 3.8-.1a14 14 0 0 0 4-.7 11.35 11.35 0 0 1 3.3-.7c.5 0 1.7.2 1.8 0s.3-.7-.2-.9-.3-.3-.3-.3a18.67 18.67 0 0 0-2.5.29c-.8.2-2.65.41-3.15.61a5.91 5.91 0 0 1-3 .7 63.12 63.12 0 0 1-8.1-.3 112.39 112.39 0 0 0-12.7-.3c-5.6.1-10.7.1-12.3.3a22.86 22.86 0 0 0-3.3.4c-1.2.3-.9.5-2 .5s-2.95-.2-3.05-.1z" fill="#3a2a1f"/><path d="M100.75 65.19s.1-1.2.9-1.3 1.3.5 1.4.3.4-1.3 1.4-1.2.9 1.2 1.4 1.3.6-.4 1.1-.3.8.1.9 1a28.4 28.4 0 0 1-.6 4.9c-.1.3-.3 1.6-1 1.5s-.7-.9-.7-.9l-.2-2-.5 2.3s-.3 1-.7 1-.5-1.2-.5-1.2l-.3-2.3-.5 2.3s-.2.6-.6.5-.7-1.2-.8-1.2a18 18 0 0 1-.7-4.7zm-11.4 0s.1-1.2.9-1.3 1.3.5 1.4.3.4-1.3 1.4-1.2 1 1.2 1.4 1.3.6-.4 1.1-.3.8.1.9 1a28.4 28.4 0 0 1-.6 4.9c-.1.3-.3 1.6-1 1.5s-.7-.9-.7-.9l-.2-2-.6 2.2s-.3 1-.7 1-.5-1.2-.5-1.2l-.3-2.3-.5 2.2s-.2.6-.6.5-.6-1-.8-1c0 0-.8-3.9-.6-4.7z" fill="#98877a"/><path d="M113.65 68.69s0-.4.6-.4a.87.87 0 0 1 .8.4l2.8 4.7s2.3-2 4.4-1.9c2.9.2 5.8 3.1 6.7 3.7a12.28 12.28 0 0 0 2.7 1.2s-2.9 5.1-8.7 4.4c-7.1-.8-5.4-6.9-5.4-6.9s-3.7-4.6-3.9-5.2z" fill="#9dbf3b"/><path class="cls-9" d="M131.45 76.39a18.46 18.46 0 0 1-3.3.8 18.47 18.47 0 0 1-5.6-.6c-2.5-.6-4.8-3.3-4.8-3.3l-.4.6a13.79 13.79 0 0 0 4.2 2.9 26.13 26.13 0 0 0 5.4.8 15.71 15.71 0 0 0 4.4-.8"/><path class="cls-9" d="M119.15 75a7.17 7.17 0 0 0 1.1 3.2 12 12 0 0 0 1.7 1.7l.2-.2a8.43 8.43 0 0 1-1.6-2 4.42 4.42 0 0 1-.5-2zm2.7 1.6a4.07 4.07 0 0 0 1.4 2.2 8.33 8.33 0 0 0 2.1 1.2l.1-.2a12 12 0 0 1-2.1-1.4 3.59 3.59 0 0 1-.9-1.5zm2.8.6a3.78 3.78 0 0 0 1.7 1.3 8.75 8.75 0 0 0 1.9.4l.1-.2a6.52 6.52 0 0 1-2-.6 8.21 8.21 0 0 1-1.1-.9z"/><path class="cls-10" d="M96.35 7.19a25.53 25.53 0 0 0-7.3-3.9 52.8 52.8 0 0 0-18.6-3.2 34.13 34.13 0 0 0-14.4 3.52 2.69 2.69 0 0 0 .6.58c.8.4 1.6.4 2.3 2s-.3 1.9 1.2 3a8.83 8.83 0 0 1 1.7 1.6s-.11 0 0 0c2.74-.19 5.63.52 11.09 2 7.7 2.1 15.5 6.4 18.9 8.3.2.2.4.2.5.3a6.32 6.32 0 0 1 1.3-.4 25.74 25.74 0 0 1 2-6.7c1.36-2.2.81-6.6.71-7.1z"/><path class="cls-9" d="M119.15 75.59a7.7 7.7 0 0 1 2.8-1.9 14.73 14.73 0 0 1 2.3-.4v.3a14.77 14.77 0 0 0-2.5.6 6.61 6.61 0 0 0-1.6 1.3zm2.8 1a6 6 0 0 1 2.5-1.7 9.08 9.08 0 0 1 2.6-.4v.3a15 15 0 0 0-2.7.7 6.57 6.57 0 0 0-1.7 1.2c-.1-.1-.65-.1-.65-.1zm2.9.5a4.05 4.05 0 0 1 1.8-1 6.94 6.94 0 0 1 1.9-.1v.2a10.48 10.48 0 0 0-2.1.2c-.6.3-1.3.7-1.3.7z"/><path d="M92.35 16c-5.5-.3-13.8-6.2-23.1-7.4a34 34 0 0 0-9.73 0 3.38 3.38 0 0 0 .63.57 8.83 8.83 0 0 1 1.7 1.6s-.05 0 0 0c2.77-.21 5.67.5 11.2 2 7.7 2.1 15.5 6.4 18.9 8.3.1.2.3.2.4.3a6.32 6.32 0 0 1 1.3-.4 26.88 26.88 0 0 1 1.3-5.2 7.25 7.25 0 0 1-2.6.23z" fill="#f39205"/><path class="cls-10" d="M92.35 21.39c-.1-.1-.2-.1-.3-.2-1.7-1-4.3-2.5-7.5-4-.4 0-.9.1-1.6.1a23 23 0 0 0-2.6-.3A21.57 21.57 0 0 1 76 17l-4.4-.7c-3.2-.5-7.2-.2-9.8-.2a23.48 23.48 0 0 0-5.2 1c-2.6.9-6.2 2.1-6.8 2.9-.4.5.1.7 3.2.6a89.12 89.12 0 0 1 20.1 1.2c6 1.1 9 1.9 14 2.4.1 0 1.1-.6 3.4-2a10.84 10.84 0 0 1 1.85-.81zm.4-.2a.35.35 0 0 0 .2-.1c-.1.1-.1.1-.2.1z"/><path class="cls-5" d="M106 19.39a14.61 14.61 0 0 0-5.9-.4q-2.4.3-3.9.6c-.2 1.7-1.1 2.6-2.6 3.9-.4.3-.8.6-1.1.8a26.12 26.12 0 0 0 1.1 3c1.2 3.4-1.1 6.7-2.7 11.5-1.5 4.5.1 7.6 2.3 8.6 4.1 1.9 5.8 2.2 9.8.9s6.6-5.9 6.8-12.1c.2-5.1-3.25-14.4-3.8-16.8z"/><path class="cls-1" d="M45 13.79c0 .2.8.5 1.5.2 1.5-.4 3.8-1.7 6.6-2.3 3.2-.7 7.1-.6 8.1-.8.2 0 .46-.07.71-.1a8.91 8.91 0 0 0-1.71-1.6c-1.5-1.1-.5-1.4-1.2-3s-1.5-1.6-2.3-2a1.7 1.7 0 0 1-.6-.6 30.71 30.71 0 0 0-3.1 1.7 26.54 26.54 0 0 0-8 8.5z"/><path class="cls-12" d="M8.11 61.58l-1.63-4.07a1.85 1.85 0 0 0-1.69-1.27H2.67v5.34H1.45V49.07h3.62c2.51 0 3.9 1 3.9 3.47a3.08 3.08 0 0 1-2.62 3.19 1.57 1.57 0 0 1 1.1 1l2.08 4.78zM5 50.18H2.67v5h2c2.06 0 3-1 3-2.51S6.89 50.18 5 50.18zM17 61.58l-.1-1.46a3.62 3.62 0 0 1-3 1.67 2.49 2.49 0 0 1-2.83-2.63c0-1.84 1.48-3.06 4.11-3.06a11.11 11.11 0 0 1 1.7.14v-1.3c0-1.31-.82-1.89-2.23-1.89a6.1 6.1 0 0 0-2.77.75l-.08-1.09a6.36 6.36 0 0 1 3.08-.71c1.91 0 3.19.75 3.19 3v4c0 1.54.09 2.57.09 2.57zm-.12-4.37a9.79 9.79 0 0 0-1.74-.13c-1.26 0-2.83.49-2.83 2a1.61 1.61 0 0 0 1.8 1.66 3 3 0 0 0 2.77-2.83zM21.6 50.38a.92.92 0 0 1-.9-.91.91.91 0 0 1 1.82 0 .92.92 0 0 1-.92.91zm-.6 11.2V52.2h1.2v9.38zM31.08 61.58v-6.09c0-1.15-.28-2.39-2.06-2.39a2.69 2.69 0 0 0-2.68 2.42v6.06h-1.2V52.2h1.18v1.39a3.81 3.81 0 0 1 3-1.59c2.16 0 3 1.2 3 3.15v6.43zM37.51 53.25v8.33h-1.2v-8.33H34v-1h2.27v-1.36c0-1.65.81-2.74 2.47-2.74a7.17 7.17 0 0 1 1.15.12l-.08 1a4.36 4.36 0 0 0-.93-.1c-1 0-1.41.72-1.41 1.78v1.25h2.62v1zM45.23 61.79c-2.83 0-3.85-1.9-3.85-4.86S42.47 52 45.3 52s3.85 1.89 3.85 4.85-1.07 4.94-3.92 4.94zm2.68-5.55c0-2-1-3.19-2.63-3.19s-2.64 1.23-2.64 3.26v1.24c0 2 1 3.19 2.61 3.19s2.66-1.24 2.66-3.27zM56 53.22a2.82 2.82 0 0 0-.53-.06 2.66 2.66 0 0 0-2.61 2.57v5.85h-1.2V52.2h1.17v1.54A3.18 3.18 0 0 1 55.68 52h.37zM64.7 57.15h-6v.45c0 1.62.71 3.12 2.77 3.12a5.7 5.7 0 0 0 2.75-.72l.07 1.08a5.66 5.66 0 0 1-3 .72c-3.13 0-3.92-2.1-3.92-4.9s1.26-4.9 3.96-4.9c1.59 0 3.41.65 3.41 4.12 0 .17-.04 1.03-.04 1.03zM61.31 53c-1.86 0-2.64 1.59-2.64 3.15h4.87c0-1.64-.35-3.15-2.23-3.15zM69.28 61.79a5.12 5.12 0 0 1-2.55-.66l.08-1.13a4.65 4.65 0 0 0 2.47.73c1.6 0 2.22-.71 2.22-1.59s-.79-1.39-2-1.86l-.6-.24c-1.2-.49-2.18-1.16-2.18-2.61S67.67 52 69.9 52a4.48 4.48 0 0 1 2.35.6l-.08 1.12A4.45 4.45 0 0 0 69.9 53c-1.35 0-1.91.54-1.91 1.33s.62 1.28 1.93 1.8l.6.24c1.31.53 2.19 1.19 2.19 2.65 0 1.66-1.08 2.77-3.43 2.77zM78.48 61.8c-1.55 0-2.13-.82-2.11-2.28v-6.27h-2.26v-1h2.27v-2.43l1.2-.19v2.62h2.63v1h-2.63v6.19c0 .81.31 1.33 1.16 1.33a4.4 4.4 0 0 0 1.4-.33l.08 1a4.68 4.68 0 0 1-1.74.36zM128.93 61.58l-1.63-4.07a1.84 1.84 0 0 0-1.69-1.27h-2.11v5.34h-1.22V49.07h3.62c2.51 0 3.9 1 3.9 3.47a3.08 3.08 0 0 1-2.63 3.19 1.59 1.59 0 0 1 1.11 1l2.08 4.78zm-3.13-11.4h-2.3v5h2c2.07 0 3-1 3-2.51s-.79-2.49-2.7-2.49zM139.11 57.15h-6v.45c0 1.62.71 3.12 2.77 3.12a5.7 5.7 0 0 0 2.78-.73l.07 1.08a5.66 5.66 0 0 1-3 .72c-3.13 0-3.92-2.1-3.92-4.9S133 52 135.73 52c1.59 0 3.41.65 3.41 4.12 0 .17-.03 1.03-.03 1.03zm-3.4-4.15c-1.86 0-2.64 1.59-2.64 3.15h4.87c0-1.64-.35-3.15-2.23-3.15zM143.72 61.79a5.12 5.12 0 0 1-2.55-.66l.08-1.11a4.65 4.65 0 0 0 2.47.73c1.6 0 2.21-.71 2.21-1.59s-.78-1.39-2-1.86l-.6-.24c-1.2-.49-2.17-1.16-2.17-2.61s.92-2.45 3.15-2.45a4.41 4.41 0 0 1 2.34.6l-.07 1.12a4.45 4.45 0 0 0-2.27-.69c-1.35 0-1.91.54-1.91 1.33s.62 1.28 1.93 1.8l.6.24c1.31.53 2.19 1.19 2.19 2.65.03 1.63-1.05 2.74-3.4 2.74zM152.67 61.79c-2.67 0-3.51-2-3.51-4.88s1-4.91 3.68-4.91a4.4 4.4 0 0 1 2.19.56l-.03 1.09a4.75 4.75 0 0 0-2.16-.58c-1.37 0-2.38 1.16-2.38 3.22v1.24c0 2.08 1.14 3.19 2.42 3.19a4.21 4.21 0 0 0 2.12-.62l.08 1.09a4.38 4.38 0 0 1-2.41.6zM163.31 61.58l-.13-1.39a3.76 3.76 0 0 1-2.91 1.61c-2.08 0-2.88-1.2-2.88-3.15V52.2h1.2v6.08c0 1.16.3 2.4 2 2.4a2.66 2.66 0 0 0 2.61-2.42V52.2h1.2v7.07c0 1.41.08 2.31.08 2.31zM174.16 57.15h-6v.45c0 1.62.71 3.12 2.77 3.12a5.67 5.67 0 0 0 2.78-.73l.08 1.08a5.68 5.68 0 0 1-3 .72c-3.13 0-3.92-2.1-3.92-4.9s1.21-4.89 3.91-4.89c1.6 0 3.42.65 3.42 4.12 0 .17-.04 1.03-.04 1.03zm-3.4-4.15c-1.85 0-2.64 1.59-2.64 3.15H173c0-1.64-.36-3.15-2.24-3.15z"/></svg>