<?xml version="1.0" encoding="UTF-8" standalone="no"?>
<svg
   xmlns:dc="http://purl.org/dc/elements/1.1/"
   xmlns:cc="http://creativecommons.org/ns#"
   xmlns:rdf="http://www.w3.org/1999/02/22-rdf-syntax-ns#"
   xmlns:svg="http://www.w3.org/2000/svg"
   xmlns="http://www.w3.org/2000/svg"
   width="200mm"
   height="200mm"
   viewBox="0 0 200 200"
   version="1.1"
   id="svg8">
  <defs
     id="defs2" />
  <metadata
     id="metadata5">
    <rdf:RDF>
      <cc:Work
         rdf:about="">
        <dc:format>image/svg+xml</dc:format>
        <dc:type
           rdf:resource="http://purl.org/dc/dcmitype/StillImage" />
        <dc:title></dc:title>
      </cc:Work>
    </rdf:RDF>
  </metadata>
  <g
     id="layer1"
     style="display:inline" />
  <g
     id="layer2"
     style="display:inline">
    <path
       id="path1338"
       style="color:#000000;font-style:normal;font-variant:normal;font-weight:normal;font-stretch:normal;font-size:medium;line-height:normal;font-family:sans-serif;font-variant-ligatures:normal;font-variant-position:normal;font-variant-caps:normal;font-variant-numeric:normal;font-variant-alternates:normal;font-variant-east-asian:normal;font-feature-settings:normal;font-variation-settings:normal;text-indent:0;text-align:start;text-decoration:none;text-decoration-line:none;text-decoration-style:solid;text-decoration-color:#000000;letter-spacing:normal;word-spacing:normal;text-transform:none;writing-mode:lr-tb;direction:ltr;text-orientation:mixed;dominant-baseline:auto;baseline-shift:baseline;text-anchor:start;white-space:normal;shape-padding:0;shape-margin:0;inline-size:0;clip-rule:nonzero;display:inline;overflow:visible;visibility:visible;opacity:1;isolation:auto;mix-blend-mode:normal;color-interpolation:sRGB;color-interpolation-filters:linearRGB;solid-color:#000000;solid-opacity:1;vector-effect:none;fill:#000000;fill-opacity:1;fill-rule:nonzero;stroke:none;stroke-width:3.77953;stroke-linecap:butt;stroke-linejoin:miter;stroke-miterlimit:4;stroke-dasharray:none;stroke-dashoffset:0;stroke-opacity:1;paint-order:stroke fill markers;color-rendering:auto;image-rendering:auto;shape-rendering:auto;text-rendering:auto;enable-background:accumulate;stop-color:#000000;stop-opacity:1"
       d="m 141.05859,59.820312 c -0.89132,-0.03499 -1.83168,0.07173 -2.75195,0.460938 -0.15341,0.06489 -0.70936,0.382312 -0.99609,0.826172 -0.28676,0.443856 -0.37838,0.848741 -0.45117,1.320312 -0.14555,0.943147 -0.18339,2.300917 -0.13868,4.888672 0.0894,5.175511 0.56148,15.168859 1.71094,34.871094 2.27969,39.0749 7.23653,116.36599 12.20313,193.90234 -0.85437,2.4e-4 -1.7162,0.0452 -2.57618,0.16797 -2.23922,0.31971 -4.56526,1.07432 -6.5625,2.73047 -1.99728,1.65619 -3.59234,3.85612 -3.90429,6.17188 -0.15591,1.15743 0.17227,2.23407 0.67773,2.99609 0.48001,0.72366 1.06097,1.17879 1.54297,1.52148 -0.0527,0.0511 -0.0329,0.036 -0.0879,0.0879 -0.52175,0.49337 -1.16435,1.12114 -1.63086,2.02344 -0.93284,1.80426 -0.64362,3.94601 0.44922,5.63867 1.05841,1.63935 2.67255,2.7361 4.13476,3.44141 -0.19619,0.12102 -0.39305,0.16179 -0.58398,0.31641 -0.70544,0.57133 -1.21741,1.44537 -1.29102,2.33984 -0.0736,0.89447 0.21756,1.69696 0.61915,2.38477 0.80274,1.37487 2.08655,2.49449 3.51367,3.60937 1.42701,1.1148 3.01627,2.17804 4.29687,2.88672 1.28017,0.70844 2.23877,1.02691 3.01953,1.27734 l 0.75196,0.0586 4.0664,-0.64453 c 0,0 0.21283,18.91151 0.46678,23.9414 0.12729,2.52114 0.25449,3.98498 0.65625,5.16016 0.20088,0.58759 0.51872,1.14663 0.99023,1.55859 0.47151,0.41196 1.01212,0.59847 1.42383,0.70117 1.64578,0.41055 3.5816,0.3 5.22656,-0.17773 0.8224,-0.23883 2.02216,-0.99928 2.5254,-2.22266 0.50323,-1.22337 0.65042,-2.72973 0.69335,-5.24023 0.0682,-3.9862 -0.26313,-10.68927 -0.64257,-17.75586 21.77198,29.29235 43.19244,58.0965 54.58203,73.01758 5.98751,7.84399 9.22419,11.8865 11.21289,14.07617 0.99435,1.09482 1.67566,1.74126 2.33984,2.18555 0.66418,0.44428 1.43108,0.62483 1.83789,0.66406 0.40667,0.0393 1.04752,0.0334 1.74219,-0.14844 0.69467,-0.18331 1.46991,-0.50739 2.50977,-1.07617 2.0797,-1.13752 5.26499,-3.25812 10.83007,-7.33789 11.09414,-8.13319 31.57144,-24.04807 52.08789,-39.99609 0.78119,0.84683 1.6401,1.79256 2.29493,2.48046 2.36266,2.48198 3.63544,3.93672 5.60156,4.53321 0.98306,0.2982 2.15631,0.13714 2.98242,-0.28125 0.82611,-0.41862 1.4206,-0.9652 2.07422,-1.57227 2.55488,-2.37286 6.58013,-6.75005 8.91797,-9.5 0.12665,3.62971 0.25171,7.59713 0.36914,19.12696 0.29454,28.91572 0.5319,88.90917 0.70898,119.02539 0.0886,15.05812 -0.18182,22.66282 2.79688,27.39453 1.48935,2.36583 3.99542,3.60402 6.89453,4 2.8991,0.39598 6.37702,0.19199 10.93359,-0.0586 1.05147,-0.0579 2.64181,-0.15307 3.80664,-0.21875 3.70078,4.13751 7.29422,8.14147 9.90821,10.39844 1.41055,1.21788 1.60545,0.76608 1.97265,3.63867 0.36718,2.87259 0.28385,8.75553 -0.53906,20.50782 -1.64584,23.50461 -6.12373,70.65362 -8.12891,94.36914 -1.00258,11.85773 -1.45553,17.74214 -0.91406,21.30468 0.27073,1.78126 0.99485,3.33474 2.35352,4.08985 1.35867,0.75511 2.59882,0.62766 3.79492,0.59765 1.91124,-0.0479 4.51178,-0.16439 7.18945,-0.3164 -1.37009,3.62252 -2.7636,7.07604 -4.54687,9.47656 -0.9776,1.31596 -1.96942,2.25872 -3.72852,3.11523 -1.75909,0.85652 -4.32692,1.58634 -8.27539,2.15625 -7.89691,1.13987 -21.27227,1.6544 -33.26172,2.82813 -11.98946,1.17373 -22.53121,3.00009 -29.04883,4.88672 -3.25882,0.94329 -5.50603,1.89753 -7.09375,2.90039 -1.58772,1.00286 -2.57998,2.1133 -2.9375,3.40234 -0.35739,1.28859 0.0912,2.62112 0.83399,3.46289 0.74282,0.84178 1.7079,1.35095 2.7168,1.63086 2.01715,0.55967 3.65552,0.1385 19.96875,-0.11133 16.31323,-0.24945 47.29999,-0.41274 62.77539,-0.91406 7.73774,-0.25058 11.54619,-0.42364 14.08398,-1.7207 1.2689,-0.64853 2.14485,-1.83162 2.44336,-3.0332 0.29858,-1.20163 0.24149,-2.3689 0.2207,-3.73633 -0.0832,-5.46962 -0.0879,-15.64681 -0.0879,-25.81446 h -1.18554 c 0.55635,-0.21289 1.0997,-0.52131 1.59179,-1.01171 1.04561,-1.04198 1.43314,-2.45256 1.63867,-4.22852 0.41103,-3.55193 0.17651,-9.40578 0,-20.82422 -0.35338,-22.83681 -0.59057,-67.637 -0.47265,-90.11914 0.059,-11.24107 0.21505,-16.94473 0.50195,-19.62109 0.0998,-0.9326 0.16496,-1.01204 0.21485,-1.20313 1.25608,-0.0423 3.00129,0.007 3.79492,0.29492 0.0748,0.16366 0.29675,0.81273 0.44922,2.23047 0.31559,2.93832 0.44217,8.80058 0.32421,19.91602 -0.23546,22.23088 -1.41676,65.59941 -1.65234,87.44531 -0.11792,10.92291 -0.0966,16.37381 0.9082,19.83594 0.33233,1.14519 0.88175,2.14195 1.59961,2.89062 -0.32656,8.93853 -0.66601,17.71984 0.12696,22.73828 0.20333,1.28584 0.49524,2.4829 1.27734,3.5293 0.7821,1.04636 1.97697,1.75414 3.46875,2.19922 2.98356,0.89015 7.48766,1.10899 15.62109,1.48437 16.26686,0.75069 46.90945,1.91774 63.42383,1.75 8.25721,-0.0839 12.94548,-0.46913 15.8711,-1.30664 1.46282,-0.41873 2.56047,-0.96943 3.31445,-1.86132 0.75401,-0.8919 0.9649,-2.02347 0.9375,-2.92969 -0.10961,-3.6251 -2.78575,-7.84965 -7.38086,-10.60742 -4.59534,-2.75785 -10.8525,-3.72901 -23.4082,-4.48243 -12.55575,-0.75341 -31.57199,-1.25366 -42.60938,-2.32421 -11.03735,-1.07052 -13.90347,-2.73579 -14.85156,-3.79493 -0.47388,-0.52939 -0.51547,-0.79401 -0.50977,-1.21093 0.002,-0.18434 0.047,-0.4178 0.10547,-0.67188 3.92183,0.17912 7.84076,0.21907 10.5332,-0.11719 1.3157,-0.16441 2.76206,-0.46502 3.82422,-1.66211 1.06213,-1.19712 1.31723,-2.74588 1.3418,-4.65625 0.0491,-3.82076 -0.88977,-9.97527 -2.36133,-21.51171 -2.94312,-23.07285 -8.12857,-67.39429 -10.48242,-89.75586 -1.17694,-11.18079 -1.62885,-16.9167 -1.53516,-19.74024 0.0469,-1.41177 0.23641,-2.01055 0.33204,-2.1914 0.0956,-0.18067 0.14612,-0.21744 0.69335,-0.5918 2.18922,-1.49787 6.30711,-4.11798 9.1836,-7.25586 2.39088,-2.60817 3.67108,-5.38203 4.7168,-8.00781 0.0316,-0.002 0.0935,-0.006 0.125,-0.008 9.22885,-0.61923 13.98095,-0.97979 16.55859,-1.26953 1.28882,-0.14475 2.015,-0.25562 2.66406,-0.45117 0.32466,-0.0979 0.66374,-0.22819 1.01172,-0.48633 0.3481,-0.25814 0.62421,-0.65718 0.71484,-0.82031 0.0907,-0.16327 0.23962,-0.53156 0.30274,-0.82617 0.0631,-0.29443 0.0886,-0.56218 0.11133,-0.91602 0.045,-0.70768 0.067,-1.77837 0.0742,-3.75 0.0151,-3.94333 -0.0295,-11.437 -0.11719,-26.02148 -0.17651,-29.12977 -0.53223,-86.48086 -0.5918,-109.6875 1.06118,0.15534 2.02388,0.0152 3.00391,-0.36914 1.14603,-0.45101 2.44836,-1.12285 4.11328,-2 0.0308,-0.0162 0.0784,-0.0422 0.10937,-0.0586 12.84703,22.39578 25.58043,44.59107 32.69727,55.70313 1.81138,2.8283 3.25804,4.96795 4.75391,6.49609 1.49586,1.52814 3.28102,2.50458 5.21875,2.31836 1.93772,-0.18633 3.66883,-1.30143 5.6914,-3.01953 2.02254,-1.71806 4.36975,-4.13256 7.375,-7.29297 12.02102,-12.6415 34.70501,-37.49864 46.26953,-49.91601 5.78226,-6.20867 8.87008,-9.33028 10.41602,-10.40235 0.77295,-0.53601 0.9471,-0.48946 0.9668,-0.48632 0.0189,0.003 0.30899,0.14278 0.9082,0.63476 2.39641,1.96891 6.89369,6.04329 10.54101,9.39648 3.64732,3.3532 6.44936,6.08852 9.36719,7.38868 2.91749,1.3 5.77679,0.77556 7.55078,-0.79688 1.77404,-1.57239 2.48037,-4.24144 1.5,-6.76953 -0.98056,-2.52862 -3.18596,-4.64495 -5.61133,-7.07031 -2.33608,-2.33613 -4.94281,-4.89355 -6.77539,-6.74805 3.25622,0.36359 9.61227,1.61549 14.38672,2.44336 5.14919,0.89284 8.12595,1.27518 10.55664,0.39844 2.43066,-0.8767 3.54456,-3.03864 3.85157,-4.72461 0.15345,-0.84329 0.14477,-1.80058 -0.22071,-2.70899 -0.36548,-0.90837 -1.04113,-1.68265 -1.93359,-2.36132 -1.78541,-1.35771 -4.45629,-2.49238 -6.75391,-3.44727 -2.29761,-0.9549 -4.26507,-1.70552 -6.22461,-2.09766 -1.95976,-0.39219 -3.70663,-0.3837 -5.85351,-0.4707 -1.355,-0.0549 -2.79488,-0.17063 -4.24414,-0.27344 1.56948,-0.52844 3.23129,-1.05411 4.94531,-1.60937 2.1179,-0.6861 4.14604,-1.31906 5.61133,-2.37695 0.73281,-0.52907 1.29216,-1.20969 1.54883,-1.99414 0.25663,-0.78446 0.16553,-1.59118 -0.0586,-2.21485 -0.44863,-1.24864 -1.61405,-2.26178 -3.24023,-2.86328 -1.62675,-0.60171 -3.78132,-0.94584 -6.54102,-1.1582 -2.75973,-0.21237 -6.07265,-0.27427 -8.30469,-0.24414 -2.23211,0.0302 -3.57079,0.18666 -5.49804,0.74609 -1.92737,0.55945 -4.53279,1.50293 -6.08399,1.9043 -0.28837,0.0746 -0.41811,0.0799 -0.53906,0.0957 0.076,0.0344 -0.23168,-0.37112 -0.43555,-1.91211 -0.43963,-3.32078 -0.57067,-10.43147 -0.93554,-14.60156 -0.18255,-2.08514 -0.42492,-3.45385 -0.80469,-4.53321 -0.37973,-1.07936 -0.98662,-1.8687 -1.53711,-2.38281 -1.10147,-1.02864 -2.53421,-1.81986 -4.17773,-2.11914 h -0.002 c -1.64413,-0.29937 -3.30315,-0.0971 -4.70898,0.47266 -1.40606,0.56985 -2.40056,1.46509 -3.01953,2.33203 -0.15459,0.21664 -0.37493,0.60754 -0.50196,1.02734 -0.12699,0.41981 -0.19727,0.85459 -0.24414,1.43946 -0.0945,1.16973 -0.11756,2.98709 -0.11718,6.35546 7e-5,6.73673 0.11756,19.64096 0.11718,26.19141 -7e-5,3.27524 0.0127,4.48834 -1.04687,6.34766 -1.06069,1.8593 -3.4612,4.49467 -8.29102,9.64843 -9.65971,10.30757 -28.87805,30.70032 -38.60742,40.72461 -2.43231,2.50606 -4.26639,4.35215 -5.64648,5.50782 -1.3801,1.1557 -2.24994,1.50475 -2.5918,1.51367 -0.34167,0.008 -0.69794,-0.12064 -1.51953,-1.09961 -0.82159,-0.97894 -1.87236,-2.66469 -3.25586,-4.92383 -5.39917,-8.81644 -15.83086,-26.02623 -26.34961,-43.38476 4.80105,-2.7117 9.54834,-5.47321 12.64844,-7.41797 1.53124,-0.96057 2.72699,-1.72191 3.67773,-2.7461 0.95074,-1.02418 1.5383,-2.59855 1.30469,-4.05273 -0.46719,-2.90837 -2.60523,-5.3129 -6.19336,-10.2832 -6.93837,-9.61105 -20.11233,-28.1903 -33.4375,-46.98243 16.83371,-9.14271 30.73035,-23.01417 39.88281,-39.84179 0.19945,0.52436 0.4517,1.03403 0.77539,1.51953 1.29135,1.93695 3.96274,2.93506 6.76953,2 2.80714,-0.93518 5.83674,-3.33935 9.18164,-7.04883 3.345,-3.70956 6.99948,-8.8196 9.61915,-15.39844 2.6197,-6.57892 4.1591,-14.45513 4.70312,-20.55859 0.54406,-6.10353 0.16675,-10.70955 -2.50977,-13.82031 -2.67665,-3.1108 -7.04777,-4.12328 -10.68164,-3.42383 -2.46819,0.47507 -4.40103,1.75128 -6.09179,3.18359 -3.26882,-51.71122 -46.27485,-92.68164 -98.80664,-92.68164 -52.32407,0 -95.19713,40.64672 -98.76563,92.06836 -1.51072,-1.17184 -3.22422,-2.1646 -5.33203,-2.57031 -3.63388,-0.69945 -8.005,0.31305 -10.68164,3.42383 -2.67662,3.11076 -3.05381,7.71679 -2.50977,13.82031 0.54404,6.10346 2.08147,13.97967 4.70118,20.55859 2.61967,6.57884 6.27416,11.68889 9.61914,15.39844 3.34491,3.70948 6.37646,6.11365 9.18359,7.04883 2.80678,0.93506 5.47034,-0.063 6.76172,-2 0.15847,-0.2377 0.29926,-0.48234 0.42578,-0.73047 8.19612,14.74633 20.05547,27.17278 34.33594,36.07422 -18.17766,13.63308 -36.12715,27.09536 -45.30469,34.16406 -4.75697,3.6639 -7.35608,5.41305 -8.45898,8.10547 -0.55146,1.34621 -0.36205,2.93779 0.23632,4.14062 0.59836,1.20284 1.46567,2.24022 2.53907,3.53711 1.71184,2.06828 4.15822,4.9057 6.71679,7.83204 -18.03688,13.58822 -35.89485,27.04124 -45.22656,33.94921 -2.40263,1.77861 -4.22241,3.09089 -5.61914,3.79297 -1.39673,0.70205 -2.2178,0.82724 -3.21094,0.54688 -1.98626,-0.56077 -5.21458,-3.75879 -11.16015,-10.78516 -11.89159,-14.05261 -35.0737,-42.48676 -46.46289,-57.07617 -5.6946,-7.29469 -8.45313,-11.16291 -9.61133,-13.17773 -0.5791,-1.00742 -0.71284,-1.53439 -0.72266,-1.62305 -0.002,-0.0144 -0.006,-0.0115 -0.01,-0.0117 0.006,0.003 0.0177,0.003 0.084,-0.12109 0.63119,-1.18356 1.82701,-3.26611 2.22852,-7.05664 0.40152,-3.79064 0.132,-9.19527 0.008,-14.00391 -0.12439,-4.80865 -0.0824,-9.04791 -0.79102,-12.12109 -0.7087,-3.07357 -2.43914,-4.85472 -4.24414,-5.56641 -1.80561,-0.71193 -4.01591,-0.52965 -6.08984,0.75391 -0.56968,0.35257 -1.13557,0.7771 -1.69531,1.25 -6.30013,-75.77914 -12.57257,-151.11391 -16.04297,-189.17188 -1.7631,-19.334963 -2.80472,-29.075189 -3.5293,-34.074219 -0.3623,-2.499515 -0.6128,-3.782031 -0.95117,-4.695312 -0.16917,-0.456639 -0.37234,-0.878384 -0.80469,-1.253907 -0.43234,-0.375533 -1.03993,-0.498635 -1.18164,-0.517578 -0.28359,-0.03791 -0.57594,-0.06451 -0.87305,-0.07617 z m -0.13086,3.361329 c 0.15353,0.493028 0.39094,1.459978 0.70899,3.654297 0.70167,4.840973 1.74433,14.57882 3.50586,33.896482 3.51235,38.51813 9.88896,115.20895 16.27148,191.98242 -0.39975,0.47694 -0.79665,0.96159 -1.17578,1.46094 -0.94193,1.24062 -1.79204,2.53131 -2.54687,3.8418 -0.90884,-0.55242 -1.9129,-1.07006 -3.10743,-1.41992 -0.21469,-0.0629 -0.43367,-0.11675 -0.65429,-0.16797 -4.97887,-77.72797 -9.95053,-155.28733 -12.23438,-194.4336 -1.14874,-19.689933 -1.61784,-29.692021 -1.70508,-34.740231 -0.0403,-2.334587 0.0277,-3.430432 0.0957,-4 0.25776,-0.0463 0.51346,-0.06791 0.84179,-0.07422 z m 252.57032,70.830079 c 52.48391,0 94.99023,42.5063 94.99023,94.99023 0,52.48393 -42.50632,94.98242 -94.99023,94.98243 -52.48393,0 -94.98243,-42.4985 -94.98243,-94.98243 0,-52.48393 42.4985,-94.99023 94.98243,-94.99023 z m -4.34766,1.9707 -0.48633,1.68946 4.95313,1.41015 0.48047,-1.68945 z m 20.13867,1.41016 -0.45703,1.69726 3.88867,1.05469 0.45899,-1.68945 z m -36.34765,1.73437 -5.65625,0.35352 0.11132,1.75781 5.6543,-0.35547 z m 60.13867,6.07422 -0.66406,1.63281 6.00976,2.47266 0.67188,-1.625 z m -49.58399,0.29492 -5.65429,0.70899 0.21484,1.74219 5.66211,-0.70118 z m -30.73047,0.11133 c -0.82462,0.47122 -1.66764,0.95168 -2.51757,1.49805 -0.84995,0.54637 -1.68462,1.14694 -2.50977,1.73633 l 1.01953,1.42382 c 0.82515,-0.58937 1.64324,-1.16924 2.44336,-1.68359 0.80014,-0.51435 1.61091,-0.97409 2.43555,-1.44531 z m 51.70313,0.23633 c -1.17747,0 -2.36371,0.003 -3.24805,0.0664 -0.88448,0.0631 -1.44782,0.20036 -1.91992,0.31836 l 0.42774,1.70507 c 0.4721,-0.11803 0.85141,-0.21882 1.61718,-0.27343 0.76592,-0.0546 1.94558,-0.0586 3.12305,-0.0586 z m 15.55273,2.48047 v 1.75781 h 3.53711 v -1.75781 z m -54.29296,0.72266 -4.5918,1.06445 0.39062,1.71289 4.59961,-1.06445 z m 82.46289,11.16992 -1.18164,1.29882 3.88281,3.53516 1.18945,-1.29883 z m -119.02539,6.84179 c -0.35369,0.47156 -0.66409,0.86033 -1.00391,1.11524 -0.33974,0.25485 -0.86531,0.48089 -1.45508,0.71679 l 0.6582,1.63086 c 0.58978,-0.23591 1.24914,-0.48561 1.85157,-0.9375 0.60234,-0.45183 0.99789,-0.99719 1.35156,-1.46875 z m 139.05273,6.57813 -1.64648,0.62109 2.12695,5.6543 1.64453,-0.61328 z m -153.54297,10.3789 -2.47266,3.18165 1.38672,1.07812 2.47266,-3.18164 z m 58.73047,11.25 c -7.91613,2.9998 -15.8884,6.01731 -23.01758,9.41211 -7.12918,3.39482 -13.28551,7.11051 -19.36914,10.77735 l 2.46485,4.08984 c 6.08361,-3.66684 12.09364,-7.28468 18.96484,-10.55664 6.87121,-3.27197 14.73036,-6.25606 22.64648,-9.25586 z m 38.45898,0.17774 -1.23242,4.61328 c 7.50119,2.00031 14.90768,3.98189 21.84961,6.7832 6.94205,2.80136 13.61058,6.49676 20.35938,10.2461 l 2.31836,-4.17774 c -6.7488,-3.74933 -13.58253,-7.54702 -20.89063,-10.49609 -7.30817,-2.9491 -14.90314,-4.96844 -22.4043,-6.96875 z m 70.19336,5.66797 -1.74804,0.12695 0.35351,4.94531 1.75,-0.125 z m -174.90625,4.74023 -1.24023,1.24805 c 0.0594,0.0594 -0.0484,-0.0693 -0.0664,-0.12695 -0.0181,-0.0577 0.01,0.005 -0.0137,0.23632 -0.0468,0.46322 -0.27424,1.55337 -0.50976,2.61329 l 1.71289,0.37695 c 0.23554,-1.05992 0.47465,-2.09745 0.54687,-2.8125 0.0363,-0.35811 0.0314,-0.64392 -0.0605,-0.9375 -0.0918,-0.29359 -0.30972,-0.53824 -0.36914,-0.59766 z m -20.24218,16.72656 c 0.30357,-0.0151 0.6033,-0.0141 0.89648,0.002 0.33507,0.0183 0.66081,0.0572 0.97266,0.11719 2.12463,0.40895 3.89049,1.79875 5.74804,3.50585 -0.0258,0.92996 -0.041,1.86266 -0.041,2.79883 0,15.70815 3.66934,30.56001 10.1875,43.75782 -0.21402,1.37333 -0.49462,2.53591 -0.91602,3.16796 -0.59366,0.89043 -1.22291,1.30492 -3.01172,0.70899 -1.78845,-0.59581 -4.6518,-2.66338 -7.78906,-6.14258 -3.1372,-3.47912 -6.55728,-8.26685 -9.00586,-14.41602 -2.44854,-6.14906 -3.9713,-13.83678 -4.48828,-19.63671 -0.51697,-5.79989 0.0516,-9.43853 1.73633,-11.39649 1.28983,-1.49903 3.58589,-2.36097 5.71094,-2.4668 z m 213.97461,0 c 2.12541,0.10583 4.42305,0.96777 5.71289,2.4668 1.68468,1.95796 2.25137,5.5966 1.73437,11.39649 -0.51696,5.79994 -2.03971,13.48765 -4.48828,19.63671 -2.44857,6.14918 -5.86866,10.93689 -9.00586,14.41602 -3.13727,3.4792 -6.00059,5.54677 -7.78906,6.14258 -1.78878,0.59593 -2.41807,0.18143 -3.01172,-0.70899 -0.54698,-0.82041 -0.85901,-2.52597 -1.08984,-4.44726 6.12939,-12.87533 9.56445,-27.27634 9.56445,-42.47852 0,-0.69473 -0.0111,-1.38679 -0.0254,-2.07812 2.1582,-2.03852 4.1082,-3.76055 6.52929,-4.22656 0.31185,-0.06 0.6376,-0.0988 0.97266,-0.11719 0.29318,-0.0161 0.59285,-0.0171 0.89649,-0.002 z M 362.21484,226.25 c -2.05732,0.0424 -3.71493,3.72369 -3.71484,8.25 0,4.55635 1.67893,8.25 3.75,8.25 2.07107,0 3.75,-3.69365 3.75,-8.25 0,-4.55635 -1.67893,-8.25 -3.75,-8.25 -0.0117,-1.2e-4 -0.0235,-1.2e-4 -0.0352,0 z m 64.75,1 c -2.05732,0.0424 -3.71493,3.72369 -3.71484,8.25 0,4.55635 1.67893,8.25 3.75,8.25 2.07107,0 3.75,-3.69365 3.75,-8.25 0,-4.55635 -1.67893,-8.25 -3.75,-8.25 -0.0117,-1.2e-4 -0.0235,-1.2e-4 -0.0352,0 z m -34.85351,3.06445 c -2.53527,0.0319 -4.98537,0.26246 -7.09375,0.99024 -2.81125,0.97039 -4.79718,2.86471 -5.91992,5.14453 -1.12264,2.27971 -1.43747,4.88015 -1.17383,7.25 0.26358,2.36959 1.11061,4.50994 2.45703,6.10351 1.34608,1.59318 3.56252,1.56104 4.99023,2.10547 L 386,250.62305 c -1.07418,-0.85379 -2.51829,-1.62179 -3.41211,-2.67969 -0.89348,-1.0575 -1.57675,-2.68907 -1.78516,-4.5625 -0.20825,-1.87318 0.0628,-3.98506 0.88477,-5.6543 0.82197,-1.66912 2.13595,-2.95291 4.27539,-3.6914 2.13955,-0.73853 5.32092,-0.8916 8.62109,-0.80469 3.30021,0.0869 6.51777,0.40867 8.85938,1.63086 2.34187,1.22233 4.11804,3.46721 4.88672,5.87695 0.76875,2.41001 0.5785,5.18051 0.043,7.29297 -0.53135,2.09609 -1.36165,3.54031 -2.28907,5.14453 -2.20655,1.49917 -4.29843,2.94797 -5.51953,4.09766 -0.76822,0.7233 -1.3338,1.43722 -1.35156,2.34765 -0.0189,0.91044 0.51242,1.63378 1.23242,2.39844 1.43985,1.52911 4.08739,3.59014 5.81641,5.2793 1.72913,1.68923 2.47664,2.84432 2.7832,4.91601 0.30652,2.0719 0.0753,5.11329 -0.40625,7.44141 -0.42192,2.03878 -1.02512,3.57435 -1.67187,5.09961 -1.62018,-0.66358 -3.43001,-1.22559 -5.61133,-1.37891 h -0.002 c -2.50557,-0.17609 -5.40781,0.16092 -7.79493,0.92969 -2.38718,0.76881 -4.15867,1.95717 -5.83984,3.07813 l 0.97461,1.46093 c 1.68117,-1.12095 3.27654,-2.178 5.4043,-2.86328 2.12791,-0.6853 4.88604,-1.01519 7.13086,-0.85742 2.245,0.1578 4.04554,0.78428 5.75,1.53516 0.8522,0.37545 1.65702,0.77056 2.28125,1.15234 0.62422,0.38178 1.062,0.78046 1.16601,0.94531 0.10394,0.16505 0.0835,0.0152 0.0234,0.0957 -0.0605,0.0805 -0.35842,0.31068 -0.88672,0.46484 -1.05634,0.30826 -3.01359,0.37806 -4.98242,0.41406 l 0.0371,1.75586 c 1.96883,-0.0359 3.94755,-0.0426 5.4414,-0.47851 0.74691,-0.21797 1.37585,-0.52923 1.80079,-1.09375 0.42496,-0.56452 0.44583,-1.46937 0.0508,-2.09571 -0.39534,-0.62656 -0.99685,-1.05956 -1.72657,-1.50586 -0.48404,-0.29604 -1.03738,-0.57798 -1.61132,-0.85156 0.66499,-1.56731 1.32975,-3.24314 1.78711,-5.45312 0.51835,-2.50482 0.78697,-5.62482 0.42773,-8.05274 -0.35943,-2.42811 -1.44493,-4.11078 -3.29883,-5.92187 -1.85393,-1.81118 -4.53766,-3.91463 -5.76562,-5.21875 -0.61387,-0.65196 -0.75686,-1.01383 -0.75391,-1.16602 0.003,-0.1522 0.15011,-0.48118 0.79883,-1.0918 1.13516,-1.06876 3.49971,-2.70815 5.96094,-4.38086 0,0 2.80662,-2.92567 3.44336,-5.4375 0.63676,-2.51191 0.91606,-5.75205 -0.082,-8.88085 -0.99813,-3.12909 -3.2314,-5.95145 -6.31054,-7.5586 -3.07945,-1.6073 -6.6958,-1.87289 -10.11328,-1.96289 -0.85439,-0.0225 -1.7096,-0.0341 -2.55469,-0.0234 z m -222.125,60.0918 c 0.3521,0.0108 0.68292,0.10058 1.03711,0.24023 0.94513,0.37267 1.71947,0.92051 2.25976,3.26368 0.54038,2.34354 0.58332,6.60472 0.70899,11.46289 0.12567,4.85816 0.3544,10.29192 0.006,13.58398 -0.3487,3.29216 -1.15718,4.54463 -1.85938,5.86133 -0.17552,0.32916 -0.53252,1.15307 -0.43555,2.0293 0.097,0.87622 0.45534,1.70137 1.13672,2.88672 1.36277,2.37068 4.14652,6.22994 9.86914,13.56054 11.44523,14.66118 34.60064,43.06648 46.54297,57.17969 5.97116,7.0566 9.03904,10.76459 12.77149,11.81836 1.86622,0.52686 3.75876,0.14113 5.5664,-0.76758 1.80765,-0.9086 3.68006,-2.30594 6.08985,-4.08984 9.39386,-6.95397 27.3424,-20.46637 45.44726,-34.10547 1.428,1.61554 2.85061,3.20623 4.20508,4.70312 -20.44229,15.89034 -40.83406,31.73798 -51.79492,39.77344 -5.51811,4.04538 -8.66899,6.11393 -10.47461,7.10156 -0.90281,0.4938 -1.4597,0.7087 -1.77148,0.79102 -0.31178,0.0824 -0.35076,0.0738 -0.58985,0.0508 -0.23894,-0.0227 -0.0796,0.0492 -0.33984,-0.125 -0.26026,-0.17424 -0.82248,-0.66394 -1.73438,-1.66797 -1.82379,-2.0081 -5.06609,-6.04091 -11.03711,-13.86328 -11.9013,-15.59145 -34.71348,-46.28643 -57.55273,-77.01563 l -1.39063,-7.36718 -0.0703,0.0137 c -0.13454,-0.55169 -0.35279,-1.10981 -0.67578,-1.65234 -0.47412,-0.7964 -1.08782,-1.49236 -1.75,-2.14258 0.34366,-0.31238 0.68611,-0.66427 0.99805,-1.11914 0.86933,-1.26772 1.1869,-2.84286 0.96679,-4.38672 -0.11009,-0.77223 -0.32372,-1.48596 -0.70117,-2.14649 -0.18871,-0.33025 -0.39639,-0.66563 -0.86328,-0.98242 -0.46688,-0.3168 -1.47266,-0.46895 -2.12695,-0.0879 -0.65462,0.38125 -0.80628,0.76634 -0.98242,1.09961 -0.17613,0.33328 -0.30716,0.6639 -0.42774,0.98828 -0.22798,0.61331 -0.42781,1.20282 -0.56055,1.51367 -0.063,-0.003 0.0639,-0.007 -0.0957,-0.0371 -0.86378,-0.16206 -1.90468,-0.48266 -2.45117,-1.43164 -0.54608,-0.94828 -0.84464,-3.4546 -0.65039,-5.78711 0.19423,-2.33239 0.73026,-4.47903 1.66992,-6.71093 0.93964,-2.23184 2.28918,-4.53965 3.91992,-6.6875 1.63074,-2.14784 3.59265,-4.12862 5.01953,-5.01172 0.89193,-0.55202 1.53426,-0.75438 2.1211,-0.73633 z m -20.07813,8.95313 c 1.37571,-0.0654 2.70124,0.065 3.75977,0.375 0.9115,0.26696 1.71914,0.69797 2.53515,1.20898 -0.0941,0.20988 -0.20265,0.41902 -0.29101,0.62891 -0.95635,2.27155 -1.54845,4.55017 -1.82227,6.93164 l -11.5039,-0.8711 c -0.30315,-0.22314 -0.57576,-0.38437 -0.81641,-0.55273 -0.33864,-0.23694 -0.62444,-0.49703 -0.77539,-0.72461 -0.15095,-0.22757 -0.21393,-0.37515 -0.16211,-0.75977 0.10348,-0.7683 1.33373,-2.91221 2.75391,-4.08984 1.42022,-1.17767 3.09291,-1.75225 4.9375,-2.01563 0.46118,-0.0658 0.92619,-0.10905 1.38476,-0.13085 z m -6.75195,11.5996 10.74023,0.80664 c 0.0209,1.86514 0.30404,3.69127 1.17579,5.20508 0.90119,1.56494 2.29604,2.31534 3.45507,2.70118 l -11.09961,-0.77735 c -0.0248,-0.008 -0.0561,-0.0188 -0.0781,-0.0273 -0.25376,-0.098 -0.44429,-0.13485 -0.64844,-0.17578 -0.81764,-0.16396 -1.50837,-0.20483 -2.50976,-0.67188 -1.00094,-0.46682 -2.32709,-1.47228 -2.90235,-2.36328 -0.57487,-0.8904 -0.61223,-1.74763 -0.29492,-2.36133 0.15855,-0.30667 0.5379,-0.73939 0.97461,-1.15234 0.38212,-0.36134 0.77247,-0.62522 1.1875,-1.1836 z m 201.81641,4.34766 c 14.34186,8.08752 30.89469,12.70703 48.52539,12.70703 15.62378,0 30.40027,-3.63331 43.54492,-10.08594 13.44206,18.95656 26.76615,37.74059 33.78906,47.46875 3.60106,4.98819 5.35452,7.80287 5.47656,8.5625 0.0609,0.37982 0.12512,0.25161 -0.27929,0.6875 -0.40468,0.43592 -1.39107,1.14163 -2.86524,2.06641 -5.89689,3.69923 -18.55062,10.80094 -25.08984,14.24609 -1.63476,0.86125 -2.88142,1.48061 -3.71484,1.8086 -0.55431,0.21808 -0.515,0.19443 -0.59766,0.21484 -0.12246,-0.47592 -0.24227,-1.37581 -0.33789,-2.6875 -0.10092,-1.37987 -0.19407,-3.13619 -0.27344,-4.62109 -0.0397,-0.74245 -0.0773,-1.41529 -0.11133,-1.95508 -0.034,-0.53979 -0.0384,-0.822 -0.11133,-1.26367 -0.008,-0.0552 -0.0254,-0.11715 -0.0508,-0.2207 -0.0151,-0.0518 -0.0301,-0.11293 -0.0664,-0.20704 -0.034,-0.0937 -0.22115,-0.43331 -0.22266,-0.43554 -7.6e-4,-10e-4 -0.36838,-0.41346 -0.36914,-0.41407 -7.6e-4,-6.4e-4 -0.92116,-0.44125 -0.92187,-0.4414 -7.6e-4,-1.5e-4 -1.25511,0.16173 -1.25586,0.16211 -7.2e-4,3.4e-4 -0.65554,0.50893 -0.65625,0.50976 -7.2e-4,8.7e-4 -0.2512,0.36763 -0.25196,0.36914 -7.2e-4,0.001 -0.0785,0.16691 -0.10156,0.22852 -0.0469,0.12246 -0.0669,0.20326 -0.082,0.26562 -0.11943,0.49784 -0.0773,0.496 -0.0879,0.7168 -0.0227,0.4416 -0.0347,1.12225 -0.0449,2.19141 -0.0189,2.1383 -0.0229,5.78179 -0.008,11.57422 0.059,23.16963 0.41503,80.67524 0.5918,109.84375 0.0884,14.58425 0.13193,22.08278 0.11719,25.97656 -0.008,1.70559 -0.0337,2.50968 -0.0586,3.07812 -0.3171,0.059 -0.47955,0.10486 -1.24804,0.19141 -2.40148,0.26986 -7.16622,0.6376 -16.38086,1.25586 -18.42932,1.23655 -54.73493,3.47904 -72.92578,4.48047 -4.54769,0.2502 -7.91438,0.39532 -10.16407,0.0879 -2.24968,-0.30728 -3.19293,-0.82262 -4.03125,-2.1543 -1.67663,-2.66336 -2.09703,-10.23029 -2.18554,-25.2832 -0.17704,-30.10579 -0.41216,-90.08267 -0.70703,-119.0332 -0.14744,-14.47529 -0.30519,-21.16925 -0.47266,-24.17579 -0.0419,-0.75163 -0.0808,-1.26856 -0.13281,-1.67578 -0.0261,-0.2036 -0.0544,-0.36847 -0.11133,-0.58984 -0.0283,-0.11067 -0.0623,-0.2401 -0.14844,-0.42969 -0.0431,-0.0948 -0.0974,-0.2011 -0.19922,-0.3457 -0.0509,-0.0723 -0.11573,-0.15665 -0.19922,-0.24414 -0.0835,-0.0875 -0.32172,-0.27174 -0.32421,-0.27344 -0.002,-0.002 -0.49949,-0.24917 -0.50196,-0.25 -0.002,-8.3e-4 -0.65378,-0.11133 -0.65625,-0.11133 -0.002,1e-5 -0.62644,0.10272 -0.6289,0.10352 -0.002,8.1e-4 -0.34485,0.14706 -0.47071,0.22851 -0.50349,0.32576 -0.6039,0.58156 -0.69531,0.7461 -0.18282,0.32908 -0.19865,0.45574 -0.23633,0.58984 -0.0754,0.2682 -0.11171,0.46784 -0.14648,0.63477 -0.13913,0.66773 -0.19012,0.88921 -0.45117,1.36523 -0.26106,0.47603 -0.79771,1.24049 -1.88282,2.52539 -2.17027,2.56988 -6.45651,7.19903 -8.79101,9.36719 -0.58358,0.54202 -1.00449,0.85474 -1.15235,0.92969 -0.006,0.003 -0.003,0.003 -0.008,0.006 -0.19485,-0.0715 -1.58435,-1.06359 -3.85156,-3.44532 -4.58487,-4.81644 -13.21319,-14.62139 -17.40625,-19.6875 -1.04825,-1.2665 -1.75476,-2.21176 -2.03125,-2.76757 -0.27651,-0.55582 -0.25849,-0.50029 -0.125,-0.82618 0.26699,-0.65178 2.46706,-2.79421 7.19726,-6.4375 9.35645,-7.20649 27.93417,-21.14105 46.58204,-35.12695 z m -197.36914,6.87695 12.8457,0.89453 c 0.02,0.0127 0.0338,0.0311 0.0547,0.043 0.058,0.033 0.11168,0.0474 0.16797,0.0723 1.06751,0.96659 2.03002,1.89851 2.41601,2.54687 0.45072,0.75709 0.45675,1.38419 0.31836,1.91993 -0.0998,0.38643 -0.34451,0.7866 -0.65234,1.23046 l -9.85938,1.55665 c -0.62276,-0.2032 -1.19561,-0.4079 -2.08203,-0.89844 -1.05279,-0.58261 -2.56895,-1.59585 -3.86133,-2.60547 -1.29226,-1.00953 -2.344,-2.06044 -2.70898,-2.68555 -0.18229,-0.31219 -0.17702,-0.46789 -0.17774,-0.45898 -7.3e-4,0.009 -0.08,0.0634 0.0899,-0.0742 0.1697,-0.13742 0.72743,-0.42319 1.3125,-0.65625 0.58507,-0.23308 1.17077,-0.4218 1.69922,-0.65625 0.14958,-0.0663 0.2897,-0.13834 0.4375,-0.22852 z m 17.53274,9.61501 c 0.49847,9.0561 0.72755,20.25565 0.64694,24.96898 -0.0404,2.36407 -0.26962,3.62258 -0.44336,4.04492 -0.17374,0.42234 0.0469,0.18804 -0.42187,0.32422 -0.93744,0.27224 -2.83172,0.32585 -3.51953,0.1543 -0.0408,-0.0102 -0.0378,-0.01 -0.0566,-0.0156 -0.0125,-0.0267 -0.0246,-0.0509 -0.0547,-0.13867 -0.16086,-0.47052 -0.36524,-1.82248 -0.48828,-4.25977 -0.24612,-4.87441 -0.49225,-24.29104 -0.49225,-24.29104 l 3.64453,-0.57813 z m 391.96921,6.73656 c 0.2552,0.006 0.5069,0.0291 0.74414,0.0723 0.94953,0.17292 1.87322,0.66919 2.53906,1.29102 0.33298,0.31113 0.46341,0.44122 0.6875,1.07812 0.22413,0.63691 0.4562,1.78508 0.62695,3.73633 0.34167,3.90269 0.44113,10.93196 0.94532,14.74023 0.25209,1.90396 0.49086,3.18076 1.60937,4.12696 0.55926,0.47309 1.30953,0.66578 1.89649,0.66406 0.58696,-0.002 1.06861,-0.12147 1.53515,-0.24219 1.86599,-0.48281 4.44554,-1.42662 6.17188,-1.92773 1.72649,-0.50114 2.50613,-0.58457 4.63476,-0.61328 2.12867,-0.0287 5.40711,0.036 8.00977,0.23633 2.6027,0.20027 4.5784,0.56009 5.66211,0.96093 1.08431,0.40106 1.2104,0.68384 1.29101,0.90821 0.0404,0.11282 0.0312,0.0843 0.0312,0.0879 -10e-4,0.004 -0.0336,0.12488 -0.36132,0.36132 -0.65534,0.47313 -2.63735,1.25071 -4.70313,1.91993 -2.06578,0.66921 -4.25029,1.32042 -6.20117,2.02148 -0.9755,0.35055 -1.88057,0.70781 -2.62695,1.06445 -0.37304,0.17832 -0.70924,0.34893 -1.01954,0.55274 -0.31029,0.20383 -0.62612,0.34927 -0.95898,0.97461 -0.1663,0.31245 -0.29124,0.83295 -0.16992,1.32031 0.12132,0.48736 0.42671,0.82162 0.66406,1.01172 0.47479,0.3802 0.80584,0.43941 1.15234,0.52539 0.69302,0.17197 1.46518,0.24764 2.44336,0.33789 1.95629,0.18051 4.6809,0.35365 6.89454,0.44336 2.21355,0.0897 3.76776,0.0987 5.34375,0.41406 1.57625,0.31544 3.37161,0.98128 5.61132,1.91211 2.23975,0.93084 4.87124,2.15106 6.03125,3.03321 0.58024,0.44122 0.79387,0.75651 0.88477,0.98242 0.0911,0.22601 0.11289,0.44768 0.0312,0.90039 -0.16479,0.90599 -0.57961,1.80917 -1.74219,2.22851 -1.16254,0.4193 -3.84364,0.32982 -8.88867,-0.54492 -5.04499,-0.87477 -12.28837,-2.41211 -15.83398,-2.67187 -0.88634,-0.065 -1.53094,-0.0892 -2.25196,0.11718 -0.36056,0.10356 -0.79993,0.2854 -1.16601,0.73047 -0.36624,0.445 -0.49135,1.11982 -0.42774,1.57227 0.12737,0.90485 0.51827,1.27087 0.88477,1.71289 0.36661,0.44205 0.7944,0.88071 1.26367,1.35742 1.87706,1.90677 4.64225,4.61491 7.04883,7.02148 2.40654,2.40658 4.32271,4.53012 4.87304,5.94922 0.55049,1.41959 0.19665,2.40599 -0.62109,3.13086 -0.81781,0.72488 -2.07967,1.14486 -4.05273,0.26563 -1.97273,-0.87904 -4.82876,-3.45 -8.48828,-6.81445 -3.65957,-3.36443 -8.12046,-7.41773 -10.67383,-9.51563 -0.6384,-0.52449 -1.34016,-1.15577 -2.4668,-1.33594 -1.1266,-0.18028 -2.24983,0.26125 -3.35156,1.02539 -2.20339,1.52799 -5.14208,4.6345 -10.93945,10.85938 -11.59473,12.4498 -34.28709,37.31615 -46.24805,49.89453 -2.99025,3.1446 -5.29759,5.50481 -7.11524,7.04883 -1.81761,1.54397 -3.10679,2.18444 -3.89062,2.25976 -0.78388,0.0752 -1.42452,-0.18323 -2.56836,-1.35156 -1.14384,-1.16852 -2.55865,-3.18655 -4.3418,-5.9707 -6.99814,-10.92675 -19.7402,-33.11978 -32.57422,-55.49219 2.10886,-1.13821 4.37497,-2.38341 6.86524,-3.77344 10.53962,17.39303 20.99608,34.64767 26.41601,43.49805 1.38611,2.26337 2.44864,4.00821 3.54493,5.31445 1.09629,1.30625 2.46032,2.31619 4.10351,2.27344 1.64319,-0.0427 3.02233,-0.94119 4.61328,-2.27344 1.59096,-1.33228 3.44701,-3.21863 5.89063,-5.73633 9.77435,-10.07066 28.97688,-30.45353 38.64453,-40.76953 4.83379,-5.15799 7.32601,-7.78855 8.74023,-10.26757 1.41419,-2.479 1.48434,-4.67007 1.48438,-7.96485 1.1e-4,-6.58959 -0.11914,-19.49285 -0.11914,-26.19141 -4e-5,-3.34926 0.0346,-5.16021 0.11133,-6.08984 0.0378,-0.46481 0.0842,-0.69803 0.10351,-0.76172 0.0189,-0.0637 -0.022,0.0265 0.0449,-0.0664 0.26495,-0.3713 0.8031,-0.88903 1.57813,-1.20313 0.58144,-0.23564 1.38478,-0.37634 2.15039,-0.35937 z m -139.63086,202.875 c -0.80224,1.7666 -1.74218,3.43362 -3.18164,5.0039 -2.3085,2.5183 -6.1988,5.08588 -8.48828,6.65235 -0.57237,0.39163 -1.42958,0.99109 -1.97852,2.02929 -0.5489,1.03824 -0.7406,2.23888 -0.79687,3.93555 -0.11263,3.39326 0.37663,9.08735 1.55664,20.29883 2.36031,22.42299 7.54035,66.71994 10.49023,89.8457 1.47492,11.5629 2.37119,17.90519 2.33203,20.94922 -0.0189,1.52205 -0.2931,1.99323 -0.33203,2.03711 -0.0389,0.0438 -0.27143,0.20983 -1.3125,0.33984 -4.16508,0.52018 -14.46514,-0.13013 -19.84375,-0.59765 -1.34464,-0.11679 -2.17269,-0.27137 -2.48828,-0.43555 -0.31559,-0.16403 -0.49566,-0.26881 -0.81836,-1.38086 -0.64543,-2.2241 -0.86341,-7.78871 -0.74609,-18.66797 0.23471,-21.7584 1.40992,-65.12784 1.64648,-87.44531 0.1183,-11.15879 0.0144,-17.02172 -0.34765,-20.38867 -0.18104,-1.68344 -0.39464,-2.76611 -0.88477,-3.72071 -0.49017,-0.95459 -1.51629,-1.62245 -2.06055,-1.83203 -2.17791,-0.8386 -4.59462,-0.73073 -6.19336,-0.59765 -0.19993,0.0151 -0.58205,0.0228 -1.09179,0.23633 -0.50975,0.21165 -1.03547,0.67347 -1.33594,1.15234 -0.60091,0.95769 -0.72658,1.88241 -0.89258,3.43164 -0.33222,3.09846 -0.46628,8.76608 -0.52539,20.03516 -0.1183,22.53823 0.11051,67.30869 0.46484,90.19921 0.17726,11.44525 0.35592,17.48878 0.0312,20.30079 -0.16252,1.40602 -0.43231,1.79575 -0.48046,1.84375 -0.048,0.048 -0.3,0.19181 -1.28321,0.35546 -3.93283,0.65496 -12.98509,1.15313 -17.6289,1.26954 -1.16091,0.0302 -1.74924,-0.092 -1.74219,-0.0879 0.007,0.004 -0.146,0.0422 -0.33203,-1.18165 -0.37206,-2.44777 -0.0549,-8.52918 0.94531,-20.35937 2.00051,-23.6603 6.4796,-70.79203 8.13477,-94.42969 0.82758,-11.81888 0.97323,-17.71698 0.51562,-21.29687 -0.45761,-3.57986 -2.14591,-5.14919 -3.32812,-6.16992 -1.76498,-1.52392 -4.47296,-4.42118 -7.39844,-7.6543 17.99773,-1.03934 42.91629,-2.5836 59.39453,-3.66992 z m -23.91406,154.2832 c 0.6627,0.11618 1.33069,0.15939 2.01367,0.21875 1.86506,0.16213 4.30357,0.34418 6.85156,0.50586 -0.0393,0.26181 -0.0644,0.53626 -0.0684,0.82422 -0.0151,1.10404 0.40027,2.37764 1.34375,3.43164 1.88663,2.10758 5.68264,3.77744 16.97852,4.87305 11.2958,1.0956 30.28182,1.58527 42.72656,2.33203 12.44474,0.74676 18.18614,1.78028 21.92383,4.02343 3.73788,2.24327 5.73045,6.02474 5.78711,7.89844 0.0151,0.46844 -0.0185,0.55485 -0.16211,0.72266 -0.14173,0.16781 -0.60023,0.51321 -1.7207,0.83398 -2.241,0.6415 -6.84091,1.09094 -15,1.17383 -16.31819,0.16592 -47.0066,-0.99887 -63.24024,-1.74805 -8.11684,-0.37455 -12.65461,-0.70016 -14.83789,-1.35156 -1.09168,-0.32579 -1.50656,-0.64415 -1.78711,-1.01953 -0.28044,-0.37531 -0.49979,-0.99112 -0.67187,-2.08008 -0.63444,-4.01439 -0.43219,-12.2055 -0.13672,-20.63867 z m -14.19727,3.29102 c 1.5e-4,9.99719 0.005,19.9402 0.0879,25.3789 0.0227,1.38267 0.0121,2.37539 -0.11719,2.89258 -0.1285,0.51719 -0.16164,0.60628 -0.76757,0.91602 -1.21209,0.6195 -5.02654,1.10869 -12.70508,1.35742 -15.35717,0.49753 -46.36252,0.66577 -62.7168,0.91601 -16.35429,0.25021 -18.05454,0.50095 -19.03711,0.22852 -0.49096,-0.13606 -0.94978,-0.42189 -1.14453,-0.64258 -0.19476,-0.22072 -0.1994,-0.21578 -0.14062,-0.42773 0.0587,-0.21166 0.35992,-0.76639 1.54296,-1.51368 1.18306,-0.74725 3.18488,-1.62554 6.25977,-2.51562 6.1498,-1.78016 16.60497,-3.62564 28.44922,-4.78516 11.84426,-1.15952 25.14084,-1.64818 33.41016,-2.84179 4.13464,-0.59679 7.02225,-1.36246 9.24218,-2.44336 2.21994,-1.08091 3.7291,-2.51097 4.91797,-4.11133 2.37776,-3.20077 3.88847,-7.31585 5.38867,-11.31641 l -0.73828,-0.27734 c 3.02662,-0.21025 5.9713,-0.47816 8.06836,-0.81445 z"
       transform="scale(0.26458333)" />
  </g>
</svg>
