<?xml version="1.0" encoding="UTF-8" standalone="no"?>
<!-- Created with Inkscape (http://www.inkscape.org/) -->

<svg
   width="756mm"
   height="756mm"
   viewBox="0 0 756 756"
   version="1.1"
   id="svg5"
   xmlns="http://www.w3.org/2000/svg"
   xmlns:svg="http://www.w3.org/2000/svg">
  <defs
     id="defs2" />
  <g
     id="layer1">
    <path
       id="path209"
       style="fill:#000000;stroke-width:1.48253"
       d="m 438.91339,2.3950318 c -0.074,-0.025652 -0.14276,-0.01039 -0.20269,0.049225 -0.2522,0.2521926 0.48108,4.4554607 1.63021,9.3410932 1.14916,4.885619 2.10255,10.975036 2.11376,13.530976 l 0.0231,4.644483 -9.89993,-5.255449 c -20.42387,-10.845134 -45.52533,-14.343209 -71.63917,-9.983902 -25.90742,4.324835 -44.2626,11.085244 -51.67426,19.032545 -3.69309,3.960104 -3.06828,7.71457 1.04529,6.274694 1.34445,-0.470622 0.27147,0.984694 -2.38594,3.234339 -4.69733,3.976639 -6.32405,7.797771 -3.32121,7.797771 0.81539,0 1.48252,1.000704 1.48252,2.223792 0,3.125823 3.76494,2.78357 16.30783,-1.482532 13.16958,-4.479259 13.97914,-4.538315 7.78328,-0.570436 -2.66529,1.706928 -4.81823,4.344398 -4.81823,5.904064 0,2.338186 1.0973,2.820282 6.43396,2.820282 3.53963,0 9.7107,-0.995039 13.71341,-2.209324 4.00268,-1.214218 8.11337,-2.212587 9.1326,-2.223793 2.40862,-0.02089 2.55014,29.296827 0.18242,37.79004 -2.05892,7.3857 -2.45521,25.86211 -0.75574,35.21009 1.02168,5.6204 0.8672,7.04202 -0.76732,7.04202 -4.34411,0 -12.86353,7.34375 -13.87845,11.96447 -0.57641,2.6244 -3.54614,6.90262 -6.87987,9.91441 -10.03953,9.07012 -13.85238,17.19562 -13.85238,29.50582 0,9.41565 0.50714,11.34177 4.49391,17.04908 9.67181,13.8459 25.71655,20.1267 55.1779,21.60383 9.17317,0.45991 16.67846,1.26985 16.67846,1.80103 0,3.15924 -4.09893,4.25918 -13.16614,3.53259 l -9.81307,-0.78469 -18.86461,12.76945 -18.86459,12.76944 -8.20604,-7.43292 c -4.51472,-4.08853 -8.76498,-7.43292 -9.44535,-7.43292 -0.68032,0 -2.41501,1.29968 -3.85398,2.88979 -2.58951,2.86157 -2.73103,10.9392 -0.28666,16.39179 0.66672,1.48721 -0.12009,2.72631 -2.3541,3.70633 -1.84584,0.80972 -3.56366,2.92405 -3.81636,4.69949 -0.25277,1.7754 -1.42025,4.02618 -2.59442,5.00065 -2.44079,2.02561 -2.8233,9.21468 -0.70074,13.18061 1.21514,2.27055 -1.45059,5.163 -17.41972,18.91094 -22.27906,19.1803 -36.03756,29.78633 -43.6854,33.67253 -16.10018,8.18127 5.10725,13.83607 28.5387,7.60954 11.35748,-3.01807 48.78035,-20.94575 49.91956,-23.91448 0.43345,-1.12955 0.11712,-3.98088 -0.70364,-6.33548 -1.3928,-3.99547 -0.9569,-4.80091 6.52082,-12.06872 4.40673,-4.28314 8.01203,-7.42023 8.01203,-6.97252 0,0.4477 -1.30297,6.36902 -2.89267,13.16034 -4.17067,17.81759 -6.21823,39.95181 -6.21678,67.13658 0.003,33.01543 4.62538,57.45611 12.96635,68.53225 1.95464,2.5956 3.55575,5.30104 3.55575,6.01119 0,0.71014 2.02518,4.48777 4.5026,8.39424 l 4.50551,7.10283 -7.4532,22.46669 c -4.09973,12.35716 -10.76432,34.14453 -14.80791,48.41386 -10.30115,36.35127 -22.688,73.01199 -43.76069,129.50996 -5.43107,14.5613 -9.66796,26.64746 -9.41637,26.85928 0.25164,0.21197 2.45891,1.42174 4.90508,2.68707 l 4.44758,2.30198 -4.17539,1.60125 c -6.4469,2.47362 -15.36491,1.90235 -21.82967,-1.39567 -3.22905,-1.64988 -5.86932,-2.39308 -5.86932,-1.65625 0,0.7368 1.50107,1.84625 3.33569,2.46411 3.15622,1.06289 3.10359,1.16012 -0.97291,1.77788 -2.36961,0.35907 -6.87895,-0.50849 -10.02154,-1.92554 -3.14266,-1.4173 -6.15365,-2.13637 -6.68876,-1.60125 -0.53528,0.53504 0.0993,0.9729 1.41013,0.9729 1.31088,0 2.86033,0.76888 3.44284,1.71128 0.77706,1.2576 -1.2163,1.4806 -7.48215,0.83392 -4.69722,-0.48473 -8.1399,-0.48431 -7.65298,0.003 0.48715,0.48721 -6.31923,2.7033 -15.12353,4.92247 -19.84148,5.00113 -34.37326,11.99945 -34.37326,16.55393 0,4.95178 28.26709,9.09239 47.44094,6.94936 13.7481,-1.53655 42.10244,-7.89646 50.09908,-11.23767 5.31766,-2.22187 5.44211,-1.29418 0.59069,4.35492 -2.73988,3.19066 -2.11281,3.18289 10.83521,-0.12452 l 10.3777,-2.65234 1.27986,-8.43189 c 0.80645,-5.31358 1.99927,-8.43477 3.22275,-8.43477 1.26752,0 3.30857,-6.05049 5.87801,-17.41973 11.22999,-49.68967 22.50632,-91.7876 37.82766,-141.21094 4.17073,-13.454 9.96711,-32.13383 12.87947,-41.51083 2.9123,-9.37699 5.98225,-19.88445 6.82195,-23.34985 l 1.52597,-6.30074 h 7.16363 c 3.93953,0 7.54836,0.16666 8.02072,0.37063 1.73695,0.7496 0.82553,185.29444 -1.02213,206.94028 -1.53727,18.00568 -1.49886,21.4524 0.25479,22.53619 1.28131,0.79207 1.90608,3.20901 1.63601,6.34128 -0.28212,3.27421 0.46317,5.95613 2.11085,7.60376 3.19051,3.19056 17.98793,14.168 19.09917,14.168 0.45346,0 -0.18766,-2.41779 -1.42173,-5.37128 -1.234,-2.95342 -2.24117,-5.59419 -2.24117,-5.8693 0,-0.27547 4.31592,2.76691 9.59302,6.76113 19.37977,14.66845 38.25399,23.47743 54.89701,25.62288 4.30734,0.55522 10.6961,-0.14485 12.97214,-1.42173 0.61154,-0.34303 1.1119,-2.15569 1.1119,-4.02774 0,-3.91605 -12.13616,-16.07784 -22.77652,-22.82574 -3.7386,-2.37096 -6.36837,-4.73902 -5.84615,-5.26124 0.5224,-0.52223 -0.42046,-0.94975 -2.0935,-0.94975 -1.67307,0 -5.24713,-0.92551 -7.94253,-2.05874 -4.07636,-1.71398 -4.41732,-2.18403 -2.024,-2.78554 1.5826,-0.39743 -0.64762,-0.71502 -4.9572,-0.70942 -8.4746,0.0149 -11.13855,-1.18395 -7.68773,-3.4573 1.46935,-0.96768 -0.30478,-1.12616 -5.43788,-0.48935 -7.52012,0.933 -18.32604,-1.30577 -18.32604,-3.79608 0,-0.66377 1.75132,-1.64591 3.89164,-2.18326 3.63182,-0.91154 3.82891,-1.39068 2.96797,-7.20127 -2.05354,-13.86 -4.18683,-77.35034 -5.14252,-152.99879 l -1.01055,-80.0566 3.16775,-4.44758 c 1.74348,-2.44616 3.92232,-6.79694 4.84138,-9.67119 1.65821,-5.18588 1.73746,-5.22808 10.19238,-5.18886 7.48058,0.0326 8.5704,-0.33616 8.95309,-3.01138 0.23977,-1.67583 -0.96773,-4.31883 -2.68418,-5.87221 l -3.12142,-2.82319 6.24863,-1.54044 c 7.82416,-1.93008 10.77474,-5.95927 6.62216,-9.04285 -1.58277,-1.17533 -4.41812,-2.13691 -6.30076,-2.13691 -4.40135,0 -4.30921,-0.85899 0.53279,-5.02381 8.36275,-7.19337 -0.15007,-10.98944 -12.28589,-5.47842 -5.95128,2.70055 -6.16829,2.70176 -8.46662,0.0173 -2.77715,-3.2438 -0.50815,-5.53159 2.77974,-2.80291 1.77522,1.47327 7.24595,-1.85666 30.69588,-18.67352 34.80741,-24.96169 45.60039,-33.12856 45.54436,-34.46881 -0.0236,-0.56384 -5.11215,-6.69568 -11.31008,-13.62652 -6.19788,-6.93083 -20.77182,-25.31629 -32.38402,-40.85644 l -21.11155,-28.25492 -0.63125,-9.89415 c -0.53947,-8.47342 -1.25933,-10.55685 -5.00932,-14.50099 -2.40846,-2.53313 -6.18272,-5.54809 -8.38845,-6.70034 l -4.01035,-2.09638 5.49288,-8.04389 c 4.99794,-7.31932 6.47369,-8.39624 16.3918,-11.95868 15.4535,-5.5506 30.38803,-14.92229 39.60264,-24.84976 8.57809,-9.24179 11.02211,-15.25308 10.98289,-27.04167 -0.0331,-10.08599 -3.99608,-18.03735 -13.04163,-26.17013 l -7.59797,-6.83064 4.32597,-0.86577 c 2.3796,-0.47595 6.46506,-2.77962 9.08049,-5.11648 3.84659,-3.43498 4.57312,-4.98275 3.7932,-8.09021 -1.65172,-6.58101 -10.61791,-8.19217 -25.61706,-4.60104 -2.71519,0.65009 -3.0499,0.22491 -2.4207,-3.0664 0.66549,-3.48137 1.36874,-3.81925 7.93096,-3.81925 6.50246,0 7.42661,-0.43185 9.50323,-4.44759 l 2.2991,-4.447604 h -8.22052 c -7.76562,0 -8.17567,-0.184478 -7.44449,-3.335695 0.42573,-1.834672 1.78901,-8.30125 3.03165,-14.370698 1.24264,-6.069503 2.5206,-11.297061 2.84056,-11.617013 0.31959,-0.319595 1.32398,0.803803 2.22957,2.495972 0.90566,1.692192 3.58344,4.079201 5.95328,5.304692 3.85752,1.994592 4.55212,1.983174 6.62796,-0.09262 5.28695,-5.28695 0.52657,-22.288123 -9.4106,-33.605931 -2.58927,-2.94901 -7.68243,-6.800385 -11.31586,-8.559297 -3.63344,-1.758924 -6.60479,-3.838225 -6.60479,-4.621308 0,-3.127856 5.09834,-11.261711 10.9105,-17.405256 4.49218,-4.7483506 5.08627,-5.8213315 2.2151,-4.0045651 -3.59472,2.2745711 -9.15598,9.3552831 -12.72891,16.2122791 -1.14396,2.195463 -1.62423,1.125596 -2.37725,-5.281512 -0.84859,-7.220217 -3.4382,-16.8414202 -4.54893,-17.225722 z M 387.17542,17.147938 c 23.67851,-0.07739 34.5303,3.520697 56.04078,16.490242 14.80999,8.929525 20.64219,14.351247 25.2725,23.488823 4.08719,8.065615 4.91517,17.654273 1.52306,17.654273 -3.36145,0 -10.89884,-10.125811 -16.92168,-22.733094 l -5.5479,-11.614109 -0.0118,15.320434 c -0.0118,14.27123 -1.59958,21.987633 -4.02485,19.562448 -0.56637,-0.56638 -1.0822,-8.092306 -1.14663,-16.721888 -0.0924,-12.373022 -0.42487,-14.747842 -1.5665,-11.240585 -5.47226,16.810563 -9.16451,24.733731 -10.4559,22.426146 -2.51159,-4.487928 0.92787,-17.647291 8.91836,-34.115556 0.36168,-0.745238 -7.92733,-0.998425 -19.19761,-0.584904 -19.81331,0.727138 -19.86746,0.739741 -52.2389,11.402751 -36.79445,12.119957 -48.17844,13.620767 -27.63817,3.645502 6.93077,-3.36587 17.27142,-7.646541 22.97921,-9.511937 5.70776,-1.865363 9.45485,-3.699276 8.32475,-4.076955 -3.25292,-1.086497 -16.92441,2.356061 -40.76668,10.264784 -12.136,4.025663 -22.41503,6.969175 -22.84312,6.541086 -1.33131,-1.331393 20.68982,-10.808987 33.09632,-14.243289 16.49153,-4.564972 16.54946,-4.585451 14.46915,-5.36548 -2.69198,-1.009429 -17.73493,3.183573 -33.28453,9.277387 -7.61674,2.984973 -14.8502,5.80673 -16.07329,6.2718 -1.97671,0.751785 -1.97671,0.540483 0,-1.905292 2.95684,-3.658396 17.54256,-10.085435 30.39186,-13.391981 9.87031,-2.539958 15.57495,-5.165685 11.22032,-5.165685 -1.08597,0 -9.5779,2.001429 -18.87041,4.447584 -9.29249,2.446167 -17.70909,4.426381 -18.70534,4.39836 -2.63192,-0.06849 2.87875,-4.007742 12.41619,-8.874897 14.37471,-7.335794 29.36397,-10.522803 53.64034,-11.405634 3.97465,-0.144547 7.61762,-0.229289 11.00026,-0.240334 z m 88.85623,6.711916 c -11.28914,0.298982 -29.10624,4.330218 -29.10624,7.363431 0,0.484275 1.16751,0.395947 2.59444,-0.196901 8.39575,-3.488744 16.98717,-5.188138 26.92007,-5.322055 9.40166,-0.126757 10.401,-0.35732 6.06621,-1.398559 -1.61055,-0.386851 -3.86931,-0.514913 -6.47448,-0.445916 z m -39.57081,12.204807 -3.9785,8.608511 c -2.67444,5.789737 -4.17203,11.889316 -4.5721,18.6185 -0.55624,9.357324 -0.39193,10.007072 2.51045,10.007072 2.2073,0 4.14734,-2.034221 6.71772,-7.042008 l 3.61656,-7.042019 -0.74996,5.930117 c -0.87453,6.94205 1.45731,14.084027 4.59817,14.084027 2.20824,0 4.18329,-5.438245 6.19072,-17.049091 l 1.02503,-5.930118 1.48253,4.84427 c 1.14393,3.743215 0.7094,8.528372 -1.91108,21.016033 l -3.3936,16.168836 -7.5777,0.929469 c -4.16792,0.511357 -10.3153,1.28943 -13.65838,1.72865 l -6.0778,0.79919 -0.85129,-7.192603 C 418.78649,85.71889 413.74854,71.903133 409.69423,66.748977 403.05991,58.314832 390.46532,64.2766 385.70736,78.10248 l -2.17456,6.315238 -3.08958,-7.042019 c -2.75158,-6.268203 -3.6092,-7.042008 -7.78905,-7.042008 -3.43649,0 -5.99239,1.374507 -9.5351,5.130928 l -4.8414,5.133856 0.30404,-13.48756 0.30693,-13.487549 17.7035,-6.274683 c 17.71324,-6.277665 29.08905,-8.677835 49.16381,-10.377702 z m -31.77593,6.257332 c -2.19667,0.04502 -4.58993,1.225088 -6.57583,3.74974 -1.68995,2.148469 -3.0722,4.533802 -3.0722,5.301775 0,0.767996 1.72566,-0.656093 3.83662,-3.164836 4.90387,-5.828181 7.48771,-5.761494 10.12002,0.257701 1.35968,3.109075 2.15169,3.862346 2.22958,2.125342 0.23664,-5.267175 -2.87706,-8.344834 -6.53819,-8.269722 z m -29.35815,15.11484 c -0.33217,0.103456 -0.89171,0.789883 -1.80683,2.096395 -1.23411,1.761941 -4.7228,5.246272 -7.75141,7.742747 -3.74646,3.088116 -4.70319,4.540237 -2.99402,4.540237 3.25491,0 12.98949,-9.727731 12.98949,-12.980818 0,-1.021339 -0.10513,-1.502083 -0.43723,-1.398561 z m 26.22514,9.931794 c 4.86246,0 10.05435,10.312244 13.54545,26.908488 1.226,5.828005 2.05088,10.760925 1.8329,10.962635 -0.21819,0.20155 -3.71301,-1.54197 -7.7659,-3.87428 -4.0529,-2.332302 -10.55754,-5.058692 -14.45467,-6.05753 -7.68027,-1.968372 -7.93105,-2.519077 -5.49867,-12.178747 1.6274,-6.463204 8.90746,-15.760566 12.34089,-15.760566 z m -30.34552,7.464757 c 1.78558,0.0534 3.51787,1.146771 5.04697,3.480476 1.3286,2.027708 3.09444,6.563744 3.92349,10.082363 l 1.50569,6.399198 -7.98018,7.563229 c -4.39021,4.15976 -10.15044,9.10699 -12.8013,10.99447 l -4.82111,3.43125 0.69205,-11.96738 c 0.99068,-17.112992 8.05707,-30.174418 14.43439,-29.983606 z m 14.93533,20.465864 4.81821,1.033729 c 6.78763,1.455785 6.84296,1.532148 5.99093,7.884643 -1.45893,10.8771 6.01478,17.15869 7.75143,6.51502 0.49897,-3.0577 1.03179,-6.31082 1.18139,-7.22733 0.15908,-0.97487 2.64173,-0.15447 5.98514,1.97477 l 5.71584,3.63973 -1.04241,8.40291 c -1.28594,10.37457 -3.90801,16.88596 -8.75618,21.73413 -4.02702,4.02701 -6.12975,4.46451 -10.16634,2.11376 C 391.52187,137.8195 386.17841,119.6898 386.15039,102.46 Z M 380.2,101.1454 c 0.76508,0.02 0.95556,1.29937 1.24509,4.50262 0.91216,10.09384 -1.32389,23.67944 -4.73134,28.75296 -6.45069,9.6049 -15.28952,6.10099 -18.69087,-7.40685 l -1.72286,-6.83932 5.65503,-4.76611 5.65503,-4.76609 0.74126,4.56919 c 1.53323,9.4527 7.83604,4.56542 7.15496,-5.5479 -0.24963,-3.70594 0.47769,-5.79295 2.54809,-7.31711 1.02063,-0.75128 1.68658,-1.1934 2.14561,-1.18139 z m 41.94228,6.25155 h 11.64885 c 8.38647,0 11.62261,0.51902 11.54752,1.85316 -0.22401,3.98347 -2.37897,7.25927 -6.60479,10.04471 -5.65643,3.72852 -5.05949,3.66659 7.45029,-0.75575 11.69076,-4.13274 22.48799,-4.77408 26.77241,-1.59256 3.38391,2.51279 2.11857,5.53146 -4.33756,10.35166 -4.31109,3.21867 -11.11281,3.77285 -23.91738,1.94871 l -7.41265,-1.05688 6.67139,1.96898 c 44.89059,13.24943 43.10758,56.8223 -3.24013,79.18504 -7.08208,3.41709 -17.75632,7.57629 -23.72048,9.24265 -12.45554,3.48002 -36.58412,4.86954 -52.59506,3.02875 -15.52043,-1.78435 -24.61951,-5.30741 -32.86756,-12.72312 -9.23855,-8.30627 -11.95696,-16.40791 -9.32662,-27.80322 1.89626,-8.21494 9.08711,-20.60709 13.92477,-23.99555 2.69529,-1.8879 3.27477,-1.75351 5.69269,1.32039 10.29409,13.08686 50.43633,14.78894 70.56783,2.99111 10.11596,-5.92836 12.52367,-14.36727 5.5508,-19.44662 l -3.77292,-2.75078 3.04034,-6.87118 c 1.67224,-3.78035 3.46488,-10.93993 3.9843,-15.90824 z m -37.95797,19.26998 1.83869,5.56239 c 2.45422,7.41042 6.35719,11.97617 11.8805,13.9016 3.80746,1.3273 5.41995,1.06907 9.91151,-1.58098 4.96069,-2.92685 5.63157,-2.98972 8.89518,-0.85128 1.94109,1.27178 3.52969,3.3847 3.52969,4.69659 0,4.18727 -9.49523,11.55121 -18.63005,14.44888 -10.03371,3.18276 -32.62154,4.46271 -41.09098,2.32803 -11.75113,-2.96171 -21.1391,-10.74164 -19.29315,-15.98932 1.38736,-3.94414 6.28935,-8.77744 10.78886,-10.64119 3.66107,-1.51647 4.55588,-1.27868 7.93965,2.10507 2.09759,2.09759 5.42102,3.81346 7.38659,3.81346 4.9526,0 11.27487,-5.3555 14.3012,-12.11505 z m 48.74395,13.69603 c -3.28942,0.023 -0.70275,0.81378 7.1781,1.87922 l 7.26788,0.9845 -6.52662,3.68894 c -3.58887,2.03012 -12.86151,9.87813 -20.60774,17.43711 -7.74621,7.55895 -17.08611,15.45695 -20.75541,17.55291 -18.99237,10.84864 -43.41297,11.25432 -58.08215,0.96422 -3.12039,-2.18897 -4.18677,-2.53381 -2.90715,-0.93816 3.25427,4.05782 10.72618,8.06607 19.47847,10.4501 4.48465,1.22156 12.06879,3.65029 16.85508,5.39444 4.78637,1.74417 12.45846,3.75576 17.0491,4.47074 16.61407,2.58753 35.2591,-1.49998 50.78243,-11.13344 14.78381,-9.1745 19.78142,-17.28813 19.47269,-31.60801 l -0.20269,-9.41346 3.24591,2.73339 c 2.917,2.4557 2.89165,2.33079 -0.23743,-1.21613 -4.70869,-5.33761 -16.624,-10.23561 -26.74054,-10.99446 -2.42391,-0.18181 -4.17347,-0.25958 -5.26993,-0.25191 z m 18.70245,5.41471 c 1.87366,0.10557 4.29892,1.98122 6.7959,5.7419 1.97212,2.97012 1.77646,3.40082 -2.83766,6.21388 -2.72654,1.66227 -5.39192,3.0258 -5.92143,3.02877 -0.5294,0.003 -1.20881,-3.07732 -1.5086,-6.84512 -0.43596,-5.48274 1.0628,-8.27519 3.47179,-8.13943 z m -7.34315,1.71128 c 0.12438,-0.0175 0.21202,-0.006 0.25481,0.0377 0.34235,0.35066 1.09278,3.79862 1.66785,7.66167 l 1.0453,7.02465 -6.96094,2.98242 c -3.82793,1.64078 -7.60828,2.98533 -8.40293,2.98533 -0.79461,0 -1.24075,-2.81018 -0.99029,-6.24284 0.39733,-5.43891 1.26449,-6.80677 6.73797,-10.6441 3.02273,-2.11911 5.77706,-3.68226 6.64823,-3.80477 z m -15.75767,11.79653 c 0.332,0 0.60517,2.27266 0.60517,5.04986 0,4.66915 -0.51115,5.22227 -6.76114,7.35184 l -6.75825,2.30199 6.15598,-7.35185 c 3.38576,-4.04387 6.42652,-7.35184 6.75824,-7.35184 z m 26.79557,8.89518 h 3.64842 l -3.43127,6.12701 c -1.88678,3.37047 -5.42977,7.62938 -7.87593,9.4656 -2.44616,1.83637 -8.28365,5.48162 -12.97213,8.0989 -8.22649,4.5921 -8.52456,4.64699 -8.52456,1.57808 0,-4.63222 3.73691,-11.12181 8.02362,-13.93056 4.06977,-2.66659 7.4779,-3.26065 6.12123,-1.06557 -0.4691,0.75908 -0.17427,1.79853 0.65441,2.31067 0.82866,0.51213 1.50858,0.2502 1.50858,-0.58491 0,-3.33742 9.27358,-11.99922 12.84763,-11.99922 z m -43.55221,55.3517 c 0.36591,0.004 0.59425,0.0325 0.64861,0.0869 0.21718,0.21717 -3.91895,6.65141 -9.19342,14.2983 -5.96945,8.65452 -8.98452,14.27759 -7.98596,14.89478 1.045,0.64589 1.23739,3.66399 0.55015,8.66064 -1.15344,8.38656 -1.61495,8.81337 -22.02657,20.39347 -4.76686,2.70441 -8.93634,4.91668 -9.2658,4.91668 -0.32932,0 -0.5965,-4.91373 -0.5965,-10.9192 0,-11.81059 0.78388,-13.49772 11.66334,-25.03215 5.41444,-5.74042 8.56385,-7.22614 7.07097,-3.3357 -2.22915,5.80903 2.02892,1.01921 9.05734,-10.1866 7.42846,-11.84361 8.065,-12.44046 14.05797,-13.24431 2.58886,-0.34796 4.92213,-0.54634 6.01987,-0.53279 z m -32.28556,10.18078 c 1.41378,-0.003 2.72055,0.13105 3.57603,0.40249 2.64871,0.84065 1.80613,1.68848 -5.67821,5.70137 -6.23777,3.34452 -10.26822,6.86629 -13.87554,12.12662 -3.88665,5.66764 -6.71289,8.01859 -12.00791,9.9897 -9.42362,3.50786 -23.45119,5.669 -22.76205,3.50653 0.91076,-2.85777 41.63142,-30.26008 46.52305,-31.30685 1.28956,-0.27625 2.81086,-0.41686 4.22463,-0.41986 z m 7.48215,4.1465 c 0.35956,0 0.65439,0.66713 0.65439,1.48253 0,0.81537 -0.70883,1.48252 -1.57228,1.48252 -0.86335,0 -1.15524,-0.66715 -0.65152,-1.48252 0.50396,-0.8154 1.20967,-1.48253 1.56941,-1.48253 z m -4.56051,2.17166 c 0.50286,-0.0176 0.76731,0.21237 0.76731,0.68914 0,0.81539 -1.33427,2.19655 -2.96505,3.06932 -1.90718,1.02051 -2.96507,1.05787 -2.96507,0.10424 0,-0.81545 1.33429,-2.19653 2.96507,-3.0693 0.95355,-0.51028 1.69486,-0.7757 2.19774,-0.79339 z m 23.55542,1.41012 c 0.75107,0.0337 1.9237,0.65462 4.03641,1.88501 2.53582,1.47686 6.21024,4.57207 8.16551,6.87697 3.30064,3.89096 3.54162,5.32257 3.36173,20.01415 -0.10658,8.70293 -0.63721,20.82778 -1.17849,26.94324 -0.93389,10.55133 -1.0798,10.89658 -2.82896,6.79588 -1.01385,-2.37673 -4.2645,-10.04882 -7.22444,-17.04909 -2.95987,-7.00025 -5.95643,-13.48798 -6.65979,-14.41702 -0.78216,-1.03301 0.17277,-4.41995 2.45833,-8.71854 l 3.73817,-7.02753 -3.15616,-5.6174 c -1.73551,-3.0883 -2.73471,-6.71016 -2.2209,-8.04968 0.42826,-1.11588 0.75752,-1.66985 1.50859,-1.63599 z m -90.44588,2.49018 c 1.99022,0.0334 4.95312,2.18582 9.22815,6.58453 3.59651,3.70056 6.53819,7.03609 6.53819,7.41265 0,0.37619 -1.69839,0.68624 -3.7758,0.68624 -2.18018,0 -5.31418,-1.65922 -7.41265,-3.9235 -4.61585,-4.98079 -4.78047,-2.15087 -0.1998,3.43704 1.88942,2.3049 4.36164,6.52779 5.49289,9.38165 1.13129,2.85385 3.3831,7.46675 5.00643,10.25029 l 2.95347,5.05855 2.09061,-6.27468 c 2.20503,-6.61527 7.0405,-10.17732 11.49828,-8.46665 2.07819,0.79746 1.34527,2.19626 -4.35203,8.28711 -3.76897,4.02936 -6.85092,8.72074 -6.85092,10.42694 0,5.01503 -3.73738,10.7266 -10.90758,16.66977 -7.70685,6.38794 -8.36819,6.5989 -8.36819,2.69287 0,-1.57843 1.35426,-3.29544 3.01428,-3.82215 2.7757,-0.881 2.63572,-1.2106 -1.78946,-4.19277 -6.65454,-4.48447 -14.81229,-15.54951 -14.26935,-19.35395 0.70803,-4.95918 6.08466,-4.66659 11.37089,0.61963 2.55179,2.55179 4.6387,5.25567 4.6387,6.00831 0,2.636 -4.07814,1.33367 -7.95122,-2.53941 -2.1497,-2.15081 -3.90902,-3.12084 -3.90902,-2.1572 0,3.37748 7.4409,9.36975 10.60647,8.54193 4.66963,-1.22113 7.18464,0.4249 7.20706,4.72267 0.0178,3.07439 0.33176,3.44164 1.45936,1.69679 2.04406,-3.16299 1.86544,-3.97678 -1.59257,-7.19838 -1.96831,-1.83361 -2.50231,-3.22374 -1.48252,-3.854 3.34246,-2.06575 1.41418,-9.37262 -5.07882,-19.25841 -6.40094,-9.74563 -7.72176,-14.14851 -5.77087,-19.23233 0.56753,-1.47894 1.41182,-2.22358 2.60602,-2.20354 z m 59.4807,0.70652 c 0.55773,-0.092 0.76442,0.27439 0.76442,1.07426 0,1.13477 -1.222,3.16759 -2.71313,4.51709 -1.49114,1.34942 -3.47185,2.45544 -4.40126,2.45544 -2.50192,0 -0.68807,-3.33111 3.46889,-6.37025 1.41242,-1.03266 2.32336,-1.58463 2.88108,-1.67654 z m 24.8787,2.80001 c 0.57608,-0.0811 1.16637,0.35106 1.58388,1.43911 0.44467,1.15874 -0.15156,2.90519 -1.32618,3.88005 -1.74177,1.44556 -2.13403,1.20934 -2.13403,-1.28563 0,-2.33439 0.9162,-3.89825 1.87633,-4.03353 z m 5.21491,4.40995 c 0.10111,-0.006 0.2101,0.0268 0.32141,0.0956 0.81539,0.5039 1.47058,2.04375 1.45937,3.42255 -0.0118,1.37886 -0.66897,3.50822 -1.45937,4.73136 -1.06709,1.65072 -1.44545,0.7664 -1.46225,-3.42545 -0.0119,-2.968 0.43287,-4.78471 1.14084,-4.82403 z m -38.79478,2.31936 c 2.6342,0 2.58321,0.77702 -0.34168,5.24096 -2.08229,3.17789 -6.50055,5.12246 -6.50055,2.86082 0,-2.13642 5.03798,-8.10178 6.84223,-8.10178 z m 35.2564,0.36194 c 0.20268,0.0289 0.39686,0.12764 0.57623,0.30692 0.27998,0.28006 0.0652,2.86701 -0.47488,5.7477 -1.39224,7.42135 -5.21857,8.6249 -4.05957,1.27695 0.66816,-4.23602 2.53946,-7.53397 3.95822,-7.33157 z m -41.07071,10.19817 c 1.39289,-0.1226 1.15316,0.74588 -0.74126,4.92537 h -0.003 c -1.31375,2.8984 -3.25017,5.26992 -4.30572,5.26992 -2.81837,0 1.28068,-9.49533 4.35493,-10.08815 0.26558,-0.0512 0.49598,-0.0897 0.69494,-0.10714 z m -49.04508,1.59547 c 3.99866,-0.57378 12.43645,8.81374 12.43645,13.83791 h -0.003 c 0,4.75587 -1.41823,4.50931 -5.78244,-1.00767 -1.9575,-2.47451 -5.15252,-5.22527 -7.09992,-6.11253 -4.22135,-1.92349 -3.94302,-6.08752 0.4488,-6.71771 z m 88.40162,1.47962 c 0.24663,-0.029 0.46722,0.0358 0.64572,0.21427 0.357,0.3571 0.0788,2.84657 -0.61677,5.53053 -1.55132,5.9867 -4.8327,7.57931 -4.8327,2.34542 0,-3.05477 3.07734,-7.8866 4.80375,-8.09022 z m -66.84413,2.67262 c 2.58754,0 2.79712,0.36766 1.25667,2.22379 -1.01504,1.22308 -2.02619,2.22379 -2.24695,2.22379 -0.22061,0 -0.78713,-1.00071 -1.25669,-2.22379 -0.59086,-1.53978 0.10055,-2.22379 2.24697,-2.22379 z m 28.71821,1.47673 c 2.12148,0.0133 0.42698,16.20758 -3.74107,30.63219 -2.44616,8.46569 -4.44759,16.33994 -4.44759,17.49789 0,1.15798 -0.66714,2.51926 -1.48253,3.02298 -4.46198,2.75764 2.34631,-38.80117 8.09021,-49.38097 0.66324,-1.22163 1.18813,-1.77446 1.58098,-1.77209 z m -11.60832,0.57333 c 0.51629,0.0858 -0.0476,3.03325 -1.9516,9.06891 -7.50771,23.79946 -8.2472,48.11176 -1.71418,56.41719 2.81676,3.5802 3.07357,5.66187 2.80581,22.68676 -0.16228,10.30884 0.40655,25.34381 1.26246,33.41194 1.82341,17.18911 8.04716,43.7102 12.1469,51.75823 1.58129,3.10409 2.48337,6.88055 2.00373,8.39134 -2.06973,6.52109 -4.46488,6.2653 -14.26646,-1.51437 -7.32425,-5.81332 -10.19779,-9.2761 -12.68547,-15.28279 -5.72239,-13.81709 -8.60197,-34.7928 -8.57956,-62.46894 0.035,-38.98139 4.1888,-65.08882 14.17959,-89.10525 3.68402,-8.85582 6.13499,-13.47333 6.79878,-13.36302 z m 41.34869,3.1967 c 0.78766,0.0158 0.61674,0.9039 0.61674,2.21511 0,1.6998 -0.50035,2.78396 -1.1119,2.40911 -0.61153,-0.3748 -1.1626,1.55386 -1.22191,4.28544 -0.23511,10.80149 -21.57109,45.04541 -26.81295,43.03389 -1.17746,-0.45168 -1.75565,-0.1947 -1.28274,0.57042 0.47293,0.7652 -0.44714,2.0914 -2.04716,2.9477 -1.60008,0.85627 -3.38372,1.55782 -3.96113,1.55782 -2.01202,0 0.82819,-17.13913 4.90508,-29.60717 l 4.10591,-12.55518 9.63644,-5.59133 c 11.88337,-6.89484 15.86082,-9.29187 17.17362,-9.26581 z m -37.02849,0.68336 c 2.55176,0 2.55412,-0.0536 -0.17954,6.48895 -2.13339,5.10603 -6.48152,7.96166 -4.58078,3.0085 0.49842,-1.29884 1.30851,-3.96741 1.80104,-5.93011 0.49258,-1.96272 1.82455,-3.56734 2.95928,-3.56734 z m 47.20061,0.40536 c 0.94085,0.0226 2.81719,3.572 5.17726,10.04473 2.99601,8.21678 3.08733,9.29519 1.00188,11.59963 -4.00534,4.42586 -14.11432,27.56337 -16.34549,37.41071 -3.84803,16.98366 -4.21963,25.2212 -1.78076,39.35364 1.27614,7.39502 3.58946,16.40849 5.14252,20.03152 2.60217,6.0713 2.64298,6.92882 0.51542,10.95392 -3.28407,6.21306 -2.79363,17.23778 1.05687,23.76391 l 3.18513,5.40024 -3.63104,4.65027 c -1.99802,2.55809 -7.22901,8.59226 -11.62281,13.40646 l -7.98886,8.75041 -3.21986,-4.09144 c -6.9481,-8.83303 -13.97824,-28.57321 -17.3126,-48.60207 -0.76602,-4.60134 -0.53639,-5.38817 1.36381,-4.65897 1.75838,0.67469 2.2875,-0.18777 2.2875,-3.72947 0,-4.76907 -1.24363,-5.73179 -3.92928,-3.04614 -2.03101,2.031 -3.46347,-12.77797 -3.47469,-36.02663 -0.0101,-17.07784 0.0568,-17.41992 3.32702,-17.42552 8.69566,-0.0149 23.00235,-13.98271 33.53645,-32.74306 4.94301,-8.80311 12.05132,-28.16693 12.05132,-32.82992 0,-1.50279 0.23254,-2.22248 0.66021,-2.21222 z m 24.93081,1.85896 c 2.88402,0.98809 13.27495,16.76791 12.05424,18.74301 -0.59708,0.96572 -0.38562,1.28366 0.49224,0.74126 0.84308,-0.52105 7.02321,6.43844 13.73368,15.4681 6.71039,9.0296 16.89129,21.73451 22.62594,28.23178 5.81563,6.58898 9.84144,12.34629 9.10367,13.01845 -0.72755,0.66281 -9.99319,7.53026 -20.59328,15.26253 -28.60929,20.86934 -25.82458,19.56544 -32.3145,15.1554 -3.02049,-2.05248 -5.49001,-3.99203 -5.49001,-4.30861 0,-0.31682 8.50603,-5.05258 18.90226,-10.52249 10.39624,-5.46984 21.07561,-11.24888 23.73207,-12.84184 l 4.8298,-2.89556 -8.47533,-12.10345 c -4.66118,-6.65652 -15.67411,-21.7436 -24.47332,-33.52776 -15.46271,-20.70814 -18.85664,-27.77927 -14.59653,-30.41213 0.11978,-0.0741 0.27679,-0.0738 0.46907,-0.009 z m -83.40967,0.70074 c 0.13298,0.0267 -0.19629,0.51632 -0.91499,1.48253 -0.90975,1.22307 -2.02297,3.2245 -2.47572,4.44759 -0.68875,1.8605 -0.84299,1.82728 -0.94104,-0.19112 -0.0643,-1.32707 1.05162,-3.3285 2.47859,-4.44758 1.12724,-0.88417 1.72022,-1.31812 1.85316,-1.29142 z m 53.03518,1.48253 c 1.34288,0 1.79803,0.87367 1.22773,2.35987 -0.49841,1.29885 -1.30852,3.96741 -1.80104,5.93012 -0.87265,3.47677 -2.19653,4.41696 -3.86847,2.745 -1.53283,-1.53283 2.29176,-11.03499 4.44178,-11.03499 z m -46.24797,8.89517 c 1.86516,0 2.13204,0.97976 1.30879,4.81823 -0.56838,2.65 -1.32837,5.31857 -1.6881,5.93012 -1.79775,3.05444 -3.73044,0.69656 -2.88689,-3.52101 0.50968,-2.54815 0.92659,-5.21667 0.92659,-5.93012 0,-0.71348 1.0517,-1.29722 2.33961,-1.29722 z m 73.89195,2.89267 c 1.43622,0.0403 11.98262,14.07945 35.94265,47.7971 6.59223,9.27693 8.67137,13.27165 7.42134,14.25777 -0.95507,0.75346 -8.40582,4.89211 -16.55975,9.19632 -22.8172,12.04437 -41.24039,22.45045 -44.12841,24.92502 -1.45154,1.2437 -2.25996,3.35443 -1.81842,4.74583 0.43761,1.37885 -0.22086,3.35067 -1.46226,4.381 -1.91267,1.58734 -2.57389,1.10941 -4.34335,-3.12722 -3.03221,-7.25998 -6.81252,-26.71828 -6.7901,-34.95817 0.0445,-16.19615 8.56809,-44.79377 17.34732,-58.20086 l 2.39465,-3.65711 4.73425,10.32849 4.73135,10.32849 1.03951,-11.86024 c 0.57254,-6.52315 1.1704,-12.8147 1.32617,-13.97979 0.016,-0.12009 0.0693,-0.17931 0.16505,-0.17663 z m -32.45062,0.80497 c 0.30741,-0.0564 0.5938,0.0552 0.86867,0.33008 2.10616,2.10616 -3.18215,14.19265 -5.52762,12.63337 -1.16094,-0.77185 -0.81917,-3.02669 1.15823,-7.6472 1.47652,-3.45 2.57855,-5.14683 3.50072,-5.31625 z m -85.96933,0.54726 c 0.95472,-0.0679 1.61441,0.45024 2.49598,1.24798 2.846,2.57554 2.68502,2.82687 -7.98308,12.52622 -7.89438,7.17756 -14.53001,11.56656 -24.14901,15.96905 l -13.26459,6.07199 4.3115,-4.50259 c 2.37202,-2.47592 5.208,-4.1573 6.30075,-3.73818 1.09285,0.41935 1.63366,0.18928 1.20165,-0.50961 -0.43189,-0.69885 6.29402,-7.38409 14.94691,-14.85717 10.50634,-9.07378 14.0395,-12.05846 16.13989,-12.20769 z m 60.97192,2.05295 c -0.31895,0.004 -0.8361,0.36543 -1.60993,1.00766 -1.29245,1.07264 -2.34832,3.25995 -2.34832,4.85875 0,4.48906 3.6365,2.27337 4.20149,-2.55967 0.27263,-2.33201 0.28835,-3.31489 -0.24324,-3.30674 z m -50.80849,3.83373 c 0.91946,-0.0953 1.00385,0.54472 -0.3272,2.14851 -0.86884,1.04686 -4.45097,3.42813 -7.9628,5.2902 l -6.38473,3.38491 5.80561,-5.2902 c 3.48612,-3.17537 7.3367,-5.37463 8.86912,-5.53342 z m 33.22662,3.43124 c 0.50931,0.0276 0.35163,1.2005 -0.21138,4.04222 -0.54525,2.75193 -0.99028,5.92086 -0.99028,7.04202 0,1.12115 -0.66715,2.03848 -1.48254,2.03848 -2.48997,0 -1.68039,-9.85476 0.99028,-12.05135 0.843,-0.69333 1.38833,-1.08794 1.69392,-1.07137 z m -35.67917,4.14935 2.32226,7.04781 c 1.27636,3.87712 2.19489,7.11349 2.04136,7.18969 -0.15341,0.0762 -3.40133,1.92521 -7.21574,4.10881 -3.81448,2.18358 -7.3171,3.96982 -7.78328,3.96982 -0.46636,0 -0.95836,-2.335 -1.09453,-5.18885 -0.1361,-2.85386 -0.30283,-6.25092 -0.37064,-7.54874 -0.0679,-1.29778 2.62636,-3.98537 5.98804,-5.97065 z m 71.62182,0.0781 c 2.65958,0 2.54006,2.57261 -0.3301,7.10572 -3.46424,5.47163 -3.58358,5.53421 -4.76609,2.45253 -0.91052,-2.37276 2.92056,-9.55825 5.09619,-9.55825 z m -86.51949,9.09207 0.25769,7.85857 0.25482,7.85856 -7.07388,3.0085 c -9.78025,4.16011 -20.20369,7.56838 -30.75089,10.05628 -9.08857,2.14367 -10.74768,2.25208 -16.80587,1.09453 -5.96725,-1.14015 -2.74567,-3.7509 12.4075,-10.06209 8.10479,-3.37557 20.80475,-9.21345 28.22308,-12.97502 z m 79.26032,0.44592 c 0.53023,-0.15081 0.93951,0.34252 1.52886,1.39566 0.92531,1.65341 0.51274,3.54083 -1.32328,6.06331 -1.46644,2.01471 -3.16428,3.6841 -3.77583,3.71212 -1.97351,0.0827 -1.18415,-5.12545 1.32039,-8.70117 1.06774,-1.52445 1.71962,-2.31912 2.24986,-2.46992 z m -64.7246,0.83971 c -1.22306,0 -2.22379,1.00071 -2.22379,2.2238 0,1.22307 1.00073,2.22379 2.22379,2.22379 1.22309,0 2.22381,-1.00072 2.22381,-2.22379 0,-1.22309 -1.00072,-2.2238 -2.22381,-2.2238 z m 33.62042,0.66307 c 1.55616,-0.10233 3.27958,5.77781 2.32803,8.53904 -0.36325,1.05419 0.9002,3.37819 2.80582,5.16568 2.65863,2.49407 3.18324,4.01505 2.24986,6.53819 l -1.21616,3.28647 -2.4757,-3.52969 c -1.3607,-1.94266 -2.47281,-4.67949 -2.47281,-6.0807 0,-1.40119 -0.66715,-2.95935 -1.48254,-3.46309 -1.90303,-1.17535 -1.93518,-9.18241 -0.0435,-10.35166 0.10145,-0.0627 0.20318,-0.0974 0.30693,-0.10424 z m 24.21562,7.38951 c 0.52234,-0.0261 0.72761,0.69822 1.10611,2.14559 0.48788,1.86585 -0.45498,4.08733 -2.57995,6.08359 -3.29686,3.09726 -3.36044,3.10034 -4.11749,0.20559 -0.48789,-1.86582 0.45496,-4.0873 2.57993,-6.0836 1.64843,-1.54853 2.48906,-2.32509 3.0114,-2.35117 z m -10.06787,7.6964 c 1.05843,0.0613 1.98943,0.76054 2.37435,2.23247 0.46025,1.75999 -0.28699,3.35819 -1.99795,4.27387 -4.29053,2.2961 -5.53818,1.74914 -4.80084,-2.10798 0.54101,-2.8301 2.66035,-4.50059 4.42444,-4.39836 z m -3.9206,12.7955 c -1.90661,0.0173 -3.62037,4.96257 -2.26723,7.15205 0.55236,0.89372 1.54254,1.06485 2.19773,0.38221 1.99792,-2.0816 2.28461,-6.82471 0.45171,-7.46765 -0.12794,-0.0449 -0.25512,-0.0677 -0.38221,-0.0666 z m 65.12416,36.28724 5.92722,4.10591 c 3.2597,2.25895 5.89097,4.51764 5.84615,5.01801 -0.044,0.50065 -3.98237,3.69263 -8.7504,7.09125 l -8.66932,6.17912 -4.53156,-7.29102 c -2.49284,-4.01016 -3.87718,-7.29104 -3.07799,-7.29104 0.7992,0 4.10877,-1.75805 7.35473,-3.90612 z m -2.22959,12.25983 c -2.29263,0 -2.94654,1.74716 -1.27693,3.41675 1.1844,1.18442 3.50072,-0.15458 3.50072,-2.02399 0,-0.76732 -1.0007,-1.39276 -2.22379,-1.39276 z m -12.63046,2.96505 c 2.97411,0 2.85958,5.13848 -0.18821,8.38265 l -3.2662,3.47758 h 3.34148 c 2.9601,0 3.22757,0.52056 2.33963,4.56341 l -1.00188,4.56342 5.86352,-3.88296 c 6.93982,-4.59249 17.41625,-6.89961 16.43813,-3.61946 -0.34101,1.14375 -4.93458,4.23466 -10.20686,6.86539 l -9.58433,4.78059 11.11897,0.058 c 6.11547,0.0317 12.06763,0.65903 13.22695,1.39276 3.66236,2.31797 -9.54643,4.84128 -20.43111,3.90324 -9.55329,-0.8233 -9.68854,-0.78702 -4.575,1.20455 10.2719,4.00056 17.89526,8.52067 17.32129,10.27056 -0.94471,2.88002 -8.78865,2.73554 -15.35229,-0.28375 -10.87459,-5.00248 -17.56159,-18.01565 -14.8369,-28.87169 0.9803,-3.9057 7.78612,-12.80419 9.79281,-12.80419 z M 289.62961,703.15666 c 3.96362,-0.033 6.60355,0.24777 7.20128,0.84552 3.97837,3.97824 -13.14509,12.19421 -39.0525,18.73721 -9.04294,2.28382 -20.38747,4.59788 -25.2088,5.14251 -8.686,0.98107 -8.76798,0.95546 -8.98203,-2.89557 -0.25585,-4.60688 -2.65159,-7.78639 -8.59694,-11.41141 -4.81213,-2.93405 -4.48957,-3.21054 6.5903,-5.67821 9.81272,-2.18544 16.66007,-1.87928 20.79596,0.93237 l 3.66578,2.49309 -2.82607,-3.23436 -2.82318,-3.23144 h 5.23808 c 2.88041,0 6.06746,1.0007 7.08255,2.22379 1.01505,1.22307 2.51162,2.2238 3.327,2.2238 0.82694,0 0.66756,-0.98329 -0.36194,-2.2238 -3.18181,-3.83386 7.25401,-2.84653 11.7531,1.11189 3.56827,3.13935 3.6324,3.14675 1.10611,0.14189 l -2.68418,-3.19381 8.62587,-0.95263 c 5.89761,-0.65182 11.18599,-0.99784 15.14961,-1.03084 z m 97.95408,3.18224 h 5.14253 c 2.93941,0 7.32112,1.47654 10.22714,3.44862 4.47241,3.03506 4.79352,3.65746 2.66102,5.1541 -1.90673,1.33823 -1.55133,1.39679 1.66785,0.28377 2.25117,-0.77831 7.17566,-0.99094 10.94234,-0.47488 l 6.84801,0.93817 -4.03062,2.11087 c -5.70333,2.98827 -3.79901,3.84479 2.60312,1.16981 4.18944,-1.75047 6.24371,-1.87634 9.49456,-0.57913 l 4.14933,1.65627 -4.99195,2.11376 c -6.99163,2.96453 -4.94791,3.94857 2.64076,1.27115 6.023,-2.12503 6.56616,-2.05805 13.94504,1.71418 l 7.67903,3.92349 -4.53155,1.20457 c -2.49109,0.66156 -6.16033,2.96297 -8.15391,5.11356 l -3.62236,3.90902 5.76508,-3.87718 c 7.97903,-5.36562 12.60256,-4.97031 21.15789,1.80684 8.86145,7.01966 11.41394,10.03993 10.17791,12.03976 -0.92856,1.50246 -8.84672,1.82361 -14.86294,0.60229 -9.30404,-1.88886 -20.41999,-5.79678 -21.03338,-7.39529 -0.39021,-1.01698 -1.56468,-1.52121 -2.6089,-1.12058 -3.44314,1.32126 -24.36527,-12.19387 -41.88146,-27.05326 z m 0.52411,3.30674 c 0.48267,0.0464 1.44471,0.94134 3.36465,2.73341 2.1178,1.97671 5.13528,6.09801 6.70323,9.15577 1.56801,3.05771 2.55569,5.55949 2.19483,5.55949 -1.49092,0 -13.28377,-9.73507 -13.02714,-10.75413 0.15297,-0.60863 0.28086,-2.55883 0.28086,-4.33176 0,-1.60739 8.9e-4,-2.40921 0.48357,-2.36278 z m -93.21695,2.62338 c 2.02155,0 0.54506,5.96686 -1.77788,7.18389 -1.42692,0.74764 -4.92937,1.85518 -7.78328,2.46123 l -5.18886,1.10321 2.95929,-3.30384 c 2.67677,-2.98457 9.74178,-7.44449 11.79073,-7.44449 z m -87.89198,0.50093 c 8.51322,-0.0535 17.60993,8.56394 15.12063,15.05114 -0.64712,1.6863 -3.09689,2.19333 -9.96364,2.06165 -14.20543,-0.27198 -30.60323,-3.32017 -30.60323,-5.68978 0,-1.97186 17.69396,-10.3832 23.75522,-11.29272 0.55875,-0.0839 1.12346,-0.12674 1.69102,-0.13031 z" />
  </g>
</svg>
