<?xml version="1.0" encoding="UTF-8" standalone="no"?>
<!-- Created with Inkscape (http://www.inkscape.org/) -->

<svg
   width="756"
   height="756"
   viewBox="0 0 200.025 200.02501"
   version="1.1"
   id="svg5"
   inkscape:version="1.1.2 (0a00cf5339, 2022-02-04)"
   sodipodi:docname="steve-front.svg"
   xmlns:inkscape="http://www.inkscape.org/namespaces/inkscape"
   xmlns:sodipodi="http://sodipodi.sourceforge.net/DTD/sodipodi-0.dtd"
   xmlns="http://www.w3.org/2000/svg"
   xmlns:svg="http://www.w3.org/2000/svg">
  <sodipodi:namedview
     id="namedview7"
     pagecolor="#ffffff"
     bordercolor="#666666"
     borderopacity="1.0"
     inkscape:pageshadow="2"
     inkscape:pageopacity="0.0"
     inkscape:pagecheckerboard="0"
     inkscape:document-units="mm"
     showgrid="false"
     units="px"
     width="756px"
     inkscape:zoom="1.0998546"
     inkscape:cx="189.57051"
     inkscape:cy="415.05486"
     inkscape:window-width="2560"
     inkscape:window-height="1415"
     inkscape:window-x="0"
     inkscape:window-y="0"
     inkscape:window-maximized="1"
     inkscape:current-layer="layer1" />
  <defs
     id="defs2" />
  <g
     inkscape:label="Layer 1"
     inkscape:groupmode="layer"
     id="layer1">
    <path
       style="fill:#000000;stroke-width:0.35489"
       d="m 77.185159,193.11489 c -0.443912,-0.3246 -0.569243,-0.70511 -0.403862,-1.22619 0.311372,-0.98104 3.45106,-3.79576 5.608303,-5.02781 0.929858,-0.53105 1.584393,-1.07183 1.454523,-1.2017 -0.129867,-0.12984 0.08606,-0.23612 0.479842,-0.23612 0.393783,0 1.234294,-0.18069 1.8678,-0.40153 0.859607,-0.29966 1.030607,-0.4834 0.674017,-0.72422 -0.331248,-0.22368 -0.151233,-0.30182 0.586855,-0.25472 1.912694,0.12206 2.646223,-0.0214 2.46863,-0.48271 -0.126526,-0.32867 0.313124,-0.41378 1.696867,-0.32847 2.009971,0.12394 3.999945,-0.42334 3.642498,-1.00171 -0.120862,-0.19555 -0.546493,-0.35554 -0.945856,-0.35554 -0.646933,0 -0.705761,-0.16447 -0.539471,-1.50828 0.705394,-5.7004 1.617876,-25.42627 1.893853,-40.94066 l 0.234278,-13.1705 -1.500698,-1.35579 c -1.652726,-1.49314 -2.868864,-3.5684 -2.868864,-4.89553 0,-0.47185 -0.239549,-1.05671 -0.532335,-1.29971 -0.408204,-0.33877 -0.532335,-1.26882 -0.532335,-3.98853 v -3.54674 l -1.394442,1.25979 c -2.214604,2.00076 -5.894343,2.66061 -7.515709,1.34771 -0.732327,-0.593 -0.768472,-0.7388 -0.317805,-1.28182 0.279677,-0.33699 0.831196,-0.73209 1.225597,-0.87797 0.630031,-0.23308 0.532478,-0.35947 -0.803473,-1.04102 -0.836311,-0.42665 -1.618583,-1.03115 -1.738382,-1.34335 -0.328184,-0.85524 0.924764,-1.61393 2.30781,-1.39744 l 1.168187,0.18285 -0.916702,-1.08943 c -0.504184,-0.5992 -0.853151,-1.26896 -0.775479,-1.48838 0.24119,-0.68134 2.378362,-0.33058 3.695401,0.6065 1.012717,0.72056 1.379482,0.81617 1.895286,0.49404 0.824015,-0.51461 0.515497,-1.01934 -0.489663,-0.80107 -0.645821,0.14023 -1.897633,-1.10085 -7.426376,-7.362681 -3.657294,-4.142241 -6.8913,-7.877839 -7.186685,-8.301332 -0.519128,-0.744289 -0.427448,-0.850173 2.745831,-3.171094 3.764525,-2.753362 8.47014,-6.601763 11.18121,-9.144351 1.438841,-1.349419 2.304029,-2.649677 3.785067,-5.688406 2.081348,-4.270418 4.329608,-6.959344 6.464208,-7.731231 l 1.193922,-0.431731 v -2.412935 c 0,-1.327113 -0.119779,-2.414143 -0.26617,-2.415619 -1.127454,-0.01073 -5.296572,-0.864211 -7.186523,-1.470111 -8.960695,-2.872725 -11.976316,-10.681995 -6.52942,-16.908613 l 1.615999,-1.847328 h -1.723007 c -2.336048,0 -3.300499,-0.715732 -3.300499,-2.449353 0,-0.851758 0.237833,-1.559666 0.649004,-1.93177 1.020719,-0.923739 1.22091,-0.687717 0.380654,0.448788 -0.535486,0.724288 -0.698039,1.307064 -0.540098,1.936351 0.277859,1.107084 1.823727,1.47937 4.835661,1.164562 l 2.055485,-0.21484 -2.130126,2.031413 c -3.646168,3.477202 -4.616494,5.869409 -3.683099,9.080168 0.757755,2.606582 3.179192,5.154253 6.273487,6.600502 3.530958,1.650357 6.865858,2.260871 12.387775,2.267805 4.20431,0.0054 5.17379,-0.111195 7.91669,-0.950792 4.06822,-1.245347 6.34286,-2.421977 8.39756,-4.343897 3.65092,-3.415008 3.28072,-7.32281 -1.14269,-12.062006 -1.31754,-1.411591 -2.39551,-2.650953 -2.39551,-2.75414 0,-0.103188 1.19134,-0.09751 2.64743,0.01261 2.11528,0.159977 2.82864,0.0815 3.5489,-0.39044 1.03287,-0.676762 1.16599,-1.813176 0.34901,-2.979566 -0.74028,-1.056893 -3.66002,-1.097643 -5.65811,-0.07895 -0.76573,0.390379 -1.51813,0.70978 -1.67205,0.70978 -0.15391,0 -0.27985,-0.713641 -0.27985,-1.585868 0,-2.110062 -0.80904,-1.835466 -1.93779,0.657717 -0.45204,0.998459 -1.06388,2.131275 -1.35965,2.51737 -0.49454,0.645592 -0.45497,0.79629 0.4926,1.875524 0.56671,0.64544 1.03039,1.465835 1.03039,1.8231 0,0.967984 -1.37954,2.539235 -2.72183,3.100083 -1.83881,0.768305 -5.98773,1.549287 -8.214247,1.546232 -2.581,-0.0035 -7.323298,-1.133623 -8.534467,-2.033745 -1.313083,-0.975863 -1.405343,-2.410623 -0.233652,-3.633604 l 0.934423,-0.975325 -0.804283,-1.543051 c -0.442356,-0.848678 -0.8904,-2.170257 -0.995654,-2.936841 -0.143196,-1.042928 -0.401026,-1.47112 -1.024211,-1.700963 -0.813247,-0.299944 -0.829946,-0.264962 -0.709781,1.486882 0.100945,1.471592 -0.115219,1.276918 -0.409275,1.61368 -0.203329,0.232862 -1.470125,-0.921162 -4.09355,-1.092952 l -2.329488,0.853205 -0.380654,-0.448787 c 2.165193,-1.94484 5.486161,-0.465384 5.827743,-0.365752 0.510532,0.148908 0.621058,-0.04767 0.621058,-1.104553 0,-1.207923 -0.107346,-1.33031 -1.774452,-2.023128 -1.815647,-0.75455 -1.929872,-0.889504 -1.562706,-1.84632 0.188806,-0.492022 0.346659,-0.49542 1.457261,-0.03139 1.459922,0.609995 1.876703,0.45529 1.708118,-0.634041 -0.06748,-0.436003 -0.229438,-1.876298 -0.359918,-3.200657 l -0.237238,-2.407926 -1.037319,1.431978 c -0.570525,0.787589 -1.192976,1.431979 -1.383222,1.431979 -0.730664,0 -0.761684,-1.788423 -0.06464,-3.72692 0.394089,-1.095978 0.566068,-1.942531 0.382172,-1.881233 -0.183895,0.0613 -0.930466,0.886145 -1.659048,1.832993 -1.60094,2.080547 -3.068794,3.060242 -3.67573,2.453304 -0.675641,-0.675639 0.300123,-2.463668 2.777774,-5.090108 1.229217,-1.303035 2.234939,-2.461362 2.234939,-2.574059 0,-0.112698 -0.553823,0.02651 -1.230716,0.309323 -1.562567,0.65288 -3.737747,0.681815 -3.737747,0.04973 0,-1.44975 3.293122,-3.451221 6.096758,-3.705445 2.047935,-0.1857 2.073741,-0.201482 1.454266,-0.889403 -0.767779,-0.85261 -1.800001,-1.299435 -4.357013,-1.886058 l -1.951899,-0.447799 1.472247,-0.02975 c 0.993683,-0.02008 2.130938,0.31675 3.498637,1.036201 2.320453,1.22063 2.334134,1.048817 0.170231,-2.1376746 -0.792668,-1.1672532 -1.360451,-2.1222801 -1.26174,-2.1222801 0.262753,0 2.862848,3.6050007 3.199543,4.4361267 0.224521,0.554231 0.438289,0.12646 0.975426,-1.9518938 0.37834,-1.4639224 0.818312,-2.7947824 0.977714,-2.9574685 0.159403,-0.1626839 -0.03322,0.9816793 -0.428054,2.5430308 -0.863374,3.4141775 -0.722055,4.1334135 0.699899,3.5621035 2.082613,-0.836747 2.458339,-0.969873 4.181926,-1.481736 5.530095,-1.6422993 6.709549,-1.8131398 12.598609,-1.8248762 5.02354,-0.010087 6.19572,0.096289 8.2485,0.7481112 2.84878,0.90457 5.68781,2.493109 5.49647,3.075473 -0.0752,0.229128 -0.80318,0.465706 -1.61757,0.525727 -0.81439,0.06002 -1.48069,0.259646 -1.48069,0.443611 0,0.183968 0.23463,0.334486 0.5214,0.334486 0.85462,0 3.37383,1.450235 3.75436,2.161286 0.29713,0.555172 0.19669,0.697846 -0.63032,0.895492 -0.54107,0.129303 -1.14348,0.358791 -1.33866,0.509966 -0.1952,0.151174 -1.12522,0.22613 -2.06673,0.166569 l -1.71183,-0.108298 0.73588,0.783318 c 1.23638,1.316061 0.96236,1.736863 -1.00771,1.547563 -2.09257,-0.201069 -2.04546,-0.321865 -2.13785,5.482297 -0.0558,3.504766 -0.001,3.889899 0.52299,3.688756 1.74166,-0.668341 2.29379,-0.658467 2.29379,0.04101 0,0.477467 -0.43172,0.864003 -1.38183,1.237221 -1.08697,0.426968 -1.43497,0.784671 -1.63079,1.676216 -0.30805,1.40258 -0.0221,1.730492 0.96898,1.1115 0.41976,-0.262148 1.73942,-0.554992 2.93258,-0.650766 2.09481,-0.168151 2.20221,-0.135122 3.12444,0.960903 1.15123,1.368146 1.23182,2.850394 0.20531,3.775979 -0.59953,0.540587 -1.24255,0.666044 -3.20888,0.626063 l -2.45909,-0.05001 1.75013,1.85049 c 3.09967,3.277464 4.01862,6.125507 3.03988,9.421323 -1.30391,4.390734 -6.60957,7.755107 -14.60849,9.263378 l -2.21807,0.418236 v 1.329031 c 0,0.730965 -0.0955,1.806834 -0.21235,2.390817 -0.18498,0.924905 -0.0943,1.09143 0.70327,1.291609 2.08861,0.5242 4.7977,3.882549 6.29803,7.807458 0.72455,1.895389 1.15844,2.385802 4.72331,5.338591 4.87355,4.036762 7.38869,5.944383 11.02326,8.360659 1.56153,1.038098 2.90133,1.938928 2.97734,2.001862 0.20883,0.172869 -1.31354,2.10572 -7.87354,9.996536 -4.7212,5.678995 -6.12415,7.157505 -6.6372,6.994645 -0.82883,-0.26305 -1.21257,0.32296 -0.56396,0.86126 0.38583,0.32021 0.86437,0.17421 2.19491,-0.66958 1.95111,-1.23736 3.33699,-1.41851 3.33699,-0.43619 0,0.35357 -0.3194,0.98569 -0.70977,1.40472 -0.39039,0.41902 -0.70978,0.81267 -0.70978,0.87479 0,0.0621 0.60778,0.0549 1.35062,-0.0158 1.82698,-0.17424 2.60291,0.66658 1.6262,1.76219 -0.36852,0.41338 -1.13331,0.94908 -1.69953,1.19043 l -1.0295,0.43882 1.0295,0.49341 c 1.27946,0.61324 1.34601,1.71436 0.14226,2.35369 -1.20708,0.64107 -4.32673,0.32142 -5.8953,-0.60406 -0.6837,-0.40338 -1.27387,-0.73376 -1.3115,-0.73417 -0.0377,-3.5e-4 -0.0144,1.04961 0.0517,2.33338 0.09,1.74784 -0.0121,2.43888 -0.40581,2.75115 -0.28929,0.22935 -0.63805,1.21552 -0.77501,2.19145 -0.36378,2.59219 -1.0843,4.05584 -2.78949,5.66656 l -1.51521,1.43126 0.2622,12.77605 c 0.33375,16.26177 1.27259,36.16245 1.95083,41.35191 0.19871,1.52041 0.15674,1.62332 -0.80324,1.96987 l -1.01292,0.36564 0.88724,0.49385 c 0.53106,0.29559 1.81322,0.47781 3.194,0.4539 1.3728,-0.0237 2.02612,0.0686 1.61361,0.2279 -0.59102,0.22839 -0.52566,0.30136 0.44362,0.49522 0.62523,0.12501 1.6558,0.13804 2.29017,0.029 0.85009,-0.14626 1.01658,-0.10258 0.63308,0.16596 -0.42612,0.29843 -0.34164,0.43231 0.46671,0.73965 0.54288,0.2064 1.41582,0.38787 1.93988,0.40329 0.52407,0.0154 0.7619,0.1057 0.52852,0.20059 -0.23339,0.095 0.78913,1.00058 2.27222,2.01261 3.29166,2.24609 5.04636,4.25444 4.49088,5.14001 -0.52444,0.83609 -3.47754,0.9611 -6.25685,0.26486 -2.86665,-0.71811 -6.75402,-2.70965 -9.88151,-5.06241 -1.37,-1.03067 -2.56435,-1.87392 -2.65408,-1.87392 -0.0897,0 0.0805,0.47117 0.3783,1.04705 0.93959,1.81698 0.60339,1.88085 -1.63512,0.31065 -2.64397,-1.85466 -3.22329,-2.66088 -2.93781,-4.08836 0.17088,-0.85436 0.0812,-1.10443 -0.44087,-1.22987 -1.4333,-0.34437 -1.83553,0.0149 -1.640936,1.46573 0.180946,1.34901 0.144856,1.39975 -2.254383,3.16964 -1.341043,0.98927 -2.560182,1.80109 -2.709202,1.80404 -0.14901,0.003 -0.02919,-0.57311 0.266169,-1.2801 0.295412,-0.70701 0.537104,-1.34517 0.537104,-1.41812 0,-0.073 -0.948967,0.63201 -2.108818,1.56663 -5.38504,4.33933 -14.167965,7.33894 -16.498586,5.63475 z m 6.425137,-1.16367 c 3.828028,-1.10412 8.143393,-3.61879 13.001509,-7.57637 l 2.416259,-1.96835 -1.255195,-0.10972 c -0.886041,-0.0774 -1.485889,0.10527 -2.039561,0.62107 -0.431405,0.40191 -1.024331,0.73073 -1.317617,0.73073 -0.407534,0 -0.370843,0.12985 0.155641,0.55073 0.661475,0.52879 0.653588,0.5408 -0.198335,0.30169 -0.972407,-0.2729 -1.070338,-0.27996 -2.7504,-0.19854 -1.298594,0.0629 -1.532742,0.59746 -0.416868,0.95163 0.405089,0.12863 0.669552,0.30073 0.587694,0.38258 -0.08186,0.0818 -0.779921,-0.0737 -1.551253,-0.34597 -1.094052,-0.386 -1.621284,-0.40534 -2.397761,-0.088 l -0.995334,0.40685 1.304299,0.47164 c 0.717363,0.25941 1.237403,0.53854 1.155643,0.62031 -0.08175,0.0817 -0.833828,-0.093 -1.671261,-0.38856 -1.440223,-0.50814 -1.607837,-0.49464 -3.097865,0.24952 -1.820777,0.90934 -2.214734,1.34477 -1.216665,1.34477 0.805712,0 2.892675,1.63214 2.876503,2.24961 -0.0059,0.22664 -0.173573,0.13253 -0.372528,-0.20899 -0.484686,-0.83216 -2.196828,-1.68572 -3.381344,-1.68572 -1.031325,0 -4.530978,2.45921 -4.911754,3.4515 -0.120933,0.31515 -0.01483,0.71186 0.235756,0.88159 0.558521,0.37828 3.37126,0.0681 5.840437,-0.64406 z m 40.828904,0.34171 c 0.16184,-0.49281 -2.14614,-2.72503 -3.66212,-3.54188 -1.40241,-0.75566 -2.7241,-0.44582 -4.14062,0.97071 -1.22898,1.229 -1.10163,1.43895 1.33673,2.20374 3.13085,0.982 6.20676,1.15678 6.46601,0.36743 z m -8.58092,-2.28419 c 0.34056,-0.65856 1.14009,-1.35004 2.01285,-1.74078 l 1.44787,-0.64823 -1.45727,-0.74344 c -1.72161,-0.87831 -2.50217,-0.92132 -4.15861,-0.22922 -0.67689,0.28283 -1.23073,0.39477 -1.23073,0.24873 0,-0.14601 0.59888,-0.48672 1.33084,-0.75713 l 1.33085,-0.49166 -1.15706,-0.34181 c -0.86601,-0.25582 -1.51326,-0.20189 -2.57295,0.21437 -0.77875,0.30591 -1.41591,0.41237 -1.41591,0.2366 0,-0.17576 0.39815,-0.41951 0.88478,-0.54163 1.71323,-0.43 0.46846,-0.94799 -1.83398,-0.76318 -1.9644,0.15768 -2.18582,0.11724 -1.63716,-0.29891 0.55223,-0.41887 0.56017,-0.48273 0.0613,-0.49254 -0.31527,-0.006 -0.9786,-0.33018 -1.47408,-0.71993 -0.8027,-0.6314 -2.74374,-0.87989 -2.74374,-0.35125 0,0.66108 10.60563,8.18851 11.96843,8.49469 0.0437,0.01 0.33384,-0.47377 0.64459,-1.07468 z m -18.266828,-3.78717 c 1.025918,-0.72556 1.381906,-1.22634 1.387539,-1.9519 0.0097,-1.18481 -0.343732,-1.23267 -1.308603,-0.17745 -0.820818,0.8977 -2.013366,3.1053 -1.677478,3.1053 0.120218,0 0.839565,-0.43918 1.598542,-0.97595 z m 7.721008,-0.49679 c -0.4538,-0.80999 -1.18441,-1.70783 -1.6236,-1.99518 -0.76645,-0.50147 -0.7985,-0.47991 -0.7985,0.53749 0,0.82576 0.29403,1.26186 1.33084,1.97386 1.8498,1.27028 2.04136,1.17967 1.09126,-0.51617 z m -3.79282,-24.07935 c 0.0215,-17.20334 -0.35123,-34.42436 -0.74514,-34.42436 -0.53579,0 -0.70097,42.51442 -0.19374,49.86207 l 0.3185,4.61358 0.30054,-2.30679 c 0.16529,-1.26872 0.30922,-9.25376 0.31984,-17.7445 z m -3.242848,-41.19402 1.242115,-1.06257 V 104.93939 90.489937 L 98.620225,89.92108 c -1.857737,-1.17592 -3.911044,-6.500359 -4.324873,-11.214822 -0.09798,-1.116284 -0.11412,-1.125968 -0.886842,-0.532341 -0.700323,0.538016 -0.841503,1.171613 -1.281345,5.750549 -0.292886,3.049055 -0.517382,10.062661 -0.550935,17.212184 -0.03114,6.63645 -0.152736,13.10696 -0.2702,14.37893 l -0.213571,2.31267 2.760824,1.85729 c 1.518457,1.02151 2.855454,1.8508 2.971112,1.84287 0.115647,-0.008 0.769235,-0.49259 1.452397,-1.077 z m 6.073998,0.10097 c 3.72413,-2.79071 5.144,-3.91776 5.5024,-4.36755 0.52967,-0.66474 0.0751,-9.49385 -0.9117,-17.709829 -0.41027,-3.415822 -0.98895,-8.366542 -1.28593,-11.001606 -0.88848,-7.883109 -0.82648,-7.697565 -1.5829,-4.736714 -1.06786,4.179906 -2.83519,6.942162 -4.74905,7.422506 -0.85568,0.214772 -0.91559,0.365133 -0.88946,2.232422 0.0155,1.101181 0.10851,1.802529 0.20702,1.55853 0.35145,-0.870958 0.82964,-0.422783 0.82964,0.777562 0,1.329024 -0.55634,2.008978 -0.81921,1.001248 -0.0897,-0.343969 -0.16313,2.169351 -0.16313,5.585181 0,3.41581 0.0731,5.9311 0.1623,5.58952 0.26385,-1.00963 0.82004,-0.70875 0.82004,0.44361 0,1.0722 -0.49736,1.44452 -0.82964,0.62106 -0.0985,-0.24398 -0.19161,2.16953 -0.20702,5.36337 l -0.028,5.80697 0.97595,1.17648 c 0.53677,0.64707 1.13566,1.18148 1.33085,1.18756 0.19518,0.006 0.93222,-0.42154 1.63787,-0.95032 z m -18.417457,-7.18764 c 1.571676,-0.4365 3.297319,-1.81272 4.016282,-3.20305 0.754422,-1.45888 0.652212,-3.75821 -0.230555,-5.18656 -0.718417,-1.16242 -0.778689,-1.18793 -1.425067,-0.60295 -0.661804,0.59891 -0.659818,0.62688 0.102222,1.43803 l 0.77715,0.82723 h -0.771643 c -0.625925,0 -0.771642,0.20727 -0.771642,1.09756 v 1.09757 l -1.812834,-1.62991 c -1.624361,-1.46043 -3.155629,-2.1129 -3.155629,-1.34461 0,0.34541 1.970402,2.22194 3.184253,3.03255 1.072671,0.71632 0.410648,0.7865 -1.909149,0.20236 -0.837886,-0.21098 -1.986584,-0.32154 -2.552661,-0.24571 -1.017514,0.13634 -1.01105,0.14668 0.567776,0.90816 0.886243,0.42743 2.307769,0.77612 3.194012,0.78347 2.400047,0.0199 2.894694,0.56624 0.768049,0.84836 -4.324624,0.57368 -5.448634,1.98287 -1.832719,2.2977 0.292783,0.0255 1.126252,-0.11857 1.852151,-0.3202 z m 31.995767,-1.16201 c 0.8917,-0.38081 0.9515,-0.49317 0.47348,-0.88989 -0.30091,-0.24973 -1.71837,-0.66028 -3.14991,-0.91234 -2.81743,-0.49608 -2.84026,-0.47532 1.21223,-1.10241 0.63438,-0.0982 1.71236,-0.53193 2.39552,-0.96394 1.16471,-0.73653 1.19121,-0.79343 0.42522,-0.9133 -0.44929,-0.0703 -1.55572,0.12395 -2.45873,0.43161 -2.65548,0.90482 -3.28004,0.73402 -1.65737,-0.45328 1.69258,-1.23843 2.81487,-2.46581 2.52226,-2.75843 -0.47239,-0.47238 -2.00361,0.28396 -3.39823,1.67859 l -1.46627,1.46628 v -1.14781 c 0,-0.9731 -0.10812,-1.11956 -0.70979,-0.96221 -0.86238,0.22552 -0.87399,0.12287 -0.11683,-1.03283 0.50534,-0.77125 0.51846,-0.95214 0.0886,-1.22385 -1.29164,-0.81666 -1.55978,0.0769 -1.22587,4.08536 0.22946,2.75472 0.29151,2.91584 1.42068,3.68956 2.06867,1.41749 3.91524,1.74751 5.64484,1.00889 z m -30.359621,-11.21999 -1.536404,-1.364918 -1.419559,0.714318 c -0.780758,0.39287 -1.4848,0.77322 -1.564537,0.84523 -0.07974,0.072 0.638916,0.97925 1.597005,2.01608 l 1.741983,1.88516 1.358957,-1.36548 1.358956,-1.36547 z m -1.891293,2.4607 c -0.141655,-0.22921 -0.09787,-0.57643 0.09734,-0.77163 0.236593,-0.23659 0.440741,-0.21597 0.612447,0.0618 0.141654,0.22921 0.09787,0.57643 -0.09734,0.77163 -0.236593,0.2366 -0.440741,0.21599 -0.612447,-0.0618 z m 5.592473,-19.962588 c 0.263533,-2.098289 0.422041,-3.815083 0.352239,-3.815083 -0.122919,0 -4.552658,3.440037 -5.90033,4.582061 -0.63627,0.539169 -0.653721,0.510009 -0.398629,-0.665964 l 0.266772,-1.229826 -2.440493,2.185528 c -1.342272,1.202035 -3.369104,3.033068 -4.504071,4.06894 l -2.063577,1.883429 4.176165,3.548898 c 6.868758,5.837066 9.420852,8.365995 8.979422,8.897895 -0.276898,0.33363 -0.25327,0.68863 0.08536,1.28252 0.401481,0.70411 0.503863,-0.44376 0.718113,-8.051074 0.137429,-4.879739 0.465492,-10.589048 0.729026,-12.687324 z m 24.111921,18.809188 c 1.91115,-2.360367 1.90937,-2.335524 0.21883,-3.070689 l -1.532,-0.666218 -1.51646,1.462387 -1.51645,1.46239 1.33901,1.14688 c 0.73644,0.63078 1.43955,1.15288 1.56243,1.16021 0.12285,0.006 0.77296,-0.6654 1.44464,-1.49496 z m -1.65292,-0.24164 c -0.11227,-0.18171 -0.0418,-0.43069 0.15651,-0.55329 0.42352,-0.26175 1.07046,0.0704 1.07046,0.54971 0,0.43183 -0.96055,0.43462 -1.22697,0.004 z m -2.86943,0.70977 c 0.11227,-0.18169 0.0419,-0.43067 -0.1565,-0.55328 -0.19837,-0.12259 -0.36067,0.0261 -0.36067,0.33037 0,0.62337 0.21295,0.71516 0.51717,0.22291 z m 8.49469,-10.123466 3.86596,-3.533478 -1.38173,-1.210351 c -2.58552,-2.264841 -9.34379,-7.870206 -9.48895,-7.870206 -0.0795,0 0.2322,1.038045 0.69272,2.306784 0.46053,1.268739 0.72351,2.306784 0.58443,2.306784 -0.13909,0 -1.59016,-1.317522 -3.2246,-2.927841 -1.69948,-1.674406 -2.89044,-2.623979 -2.7819,-2.218069 0.10442,0.390377 0.69052,5.261249 1.30254,10.824167 0.61201,5.5629 1.17032,10.297136 1.24071,10.520536 0.0704,0.22338 1.29725,-0.73483 2.72639,-2.129342 1.42917,-1.394526 4.33814,-4.125576 6.46443,-6.068984 z m -35.215342,6.967344 1.300514,-0.59474 -4.464135,-3.874225 c -2.455274,-2.130818 -4.650821,-3.874222 -4.878991,-3.874222 -1.35899,0 0.756135,-2.24808 7.811635,-8.302652 1.528207,-1.311406 2.30619,-2.295477 2.739892,-3.465669 l 0.605685,-1.634207 -1.006402,0.815991 c -0.553521,0.448804 -2.584974,2.181249 -4.514343,3.849875 -2.848255,2.463329 -5.105134,4.215036 -8.967246,6.960042 -0.155833,0.110792 1.315005,1.840252 4.18084,4.916064 1.093535,1.173661 2.691972,2.970296 3.552083,3.992523 0.860109,1.022227 1.738463,1.846752 1.951895,1.832272 0.213433,-0.0145 0.97329,-0.293952 1.688573,-0.621052 z m 36.409912,-3.522595 c 1.38375,-1.707901 2.80987,-3.424683 3.16914,-3.815074 1.4092,-1.531247 3.39729,-4.106058 3.26567,-4.22946 -0.9706,-0.91007 -7.03983,-4.721329 -7.22445,-4.536697 -0.13684,0.136841 -0.19557,0.0094 -0.13051,-0.283541 0.0725,-0.326423 -0.12045,-0.513524 -0.49894,-0.483679 -0.33949,0.02669 -0.54288,-0.07163 -0.45199,-0.218742 0.0909,-0.147062 -0.14739,-0.550329 -0.52949,-0.896135 -0.60099,-0.543877 -0.77948,-0.562253 -1.32248,-0.136157 -0.55719,0.437257 -0.57811,0.428994 -0.18618,-0.07363 0.3787,-0.485611 0.0399,-0.902264 -2.3798,-2.927842 -1.55174,-1.298917 -2.89856,-2.361657 -2.99295,-2.361657 -0.0944,0 0.0688,0.678734 0.36266,1.508284 0.45665,1.289155 1.28046,2.101241 5.67017,5.589524 2.82475,2.244682 5.53383,4.494151 6.02016,4.998822 l 0.88424,0.917595 -3.82556,3.534001 c -2.10406,1.94371 -4.29978,3.963226 -4.87938,4.487796 l -1.05382,0.953785 1.14992,0.229985 c 0.63247,0.126485 1.23588,0.369047 1.34095,0.539035 0.45491,0.736055 1.24824,0.122054 3.61262,-2.796251 z M 99.633717,87.829348 c -1.0164,-0.847122 -1.221704,-0.865377 -1.502522,-0.133594 -0.25898,0.67487 0.350429,1.517781 1.375393,1.902377 1.072572,0.402467 1.166372,-0.902654 0.127129,-1.768822 z m 2.320903,1.320381 c 0.37911,-0.277211 0.53089,-0.683845 0.39117,-1.047972 -0.18802,-0.489969 -0.34803,-0.520229 -0.90654,-0.171434 -0.37302,0.23296 -0.67823,0.704541 -0.67823,1.047972 0,0.740004 0.34774,0.789941 1.1936,0.171434 z m 1.88786,-3.388209 c -0.29433,-0.371062 -0.47633,-0.271737 -0.86651,0.472962 -0.27165,0.518473 -0.39497,1.200533 -0.27404,1.515688 0.17715,0.461628 0.3456,0.369681 0.86652,-0.472948 0.46732,-0.755939 0.54331,-1.176227 0.27403,-1.515702 z m -6.00705,-0.199158 c -0.290711,-0.609629 -0.646302,-1.644455 -0.790203,-2.299622 -0.228923,-1.04227 -0.326167,-1.126666 -0.777809,-0.675018 -0.654812,0.654817 -0.274369,2.536592 0.456149,2.25627 0.558341,-0.214262 0.670071,0.345953 0.134963,0.676668 -0.221347,0.136801 -0.139813,0.631922 0.21802,1.323894 0.514247,0.994439 0.60752,1.041184 0.929523,0.465785 0.256115,-0.457631 0.207568,-0.954856 -0.170643,-1.747977 z m 3.57788,1.605973 c 1.14243,-0.990832 2.43261,-4.15335 2.92903,-7.179777 0.7029,-4.285187 0.22268,-4.578708 -1.67262,-1.022379 -0.88119,1.653509 -1.751,3.158105 -1.9329,3.343528 -0.3004,0.306277 -0.49644,5.518541 -0.20754,5.518541 0.0677,0 0.46553,-0.296953 0.88403,-0.659913 z m -0.49127,-2.626394 c -0.30463,-0.793858 -0.055,-2.230141 0.37131,-2.136799 0.19521,0.04278 0.4073,0.501358 0.47137,1.019187 0.13882,1.122306 -0.51044,1.983419 -0.84268,1.117612 z m -1.350799,0.181024 c -0.04722,-1.670167 -0.305412,-2.459386 -1.422189,-4.34741 -1.697009,-2.868984 -1.700153,-2.872029 -1.440444,-1.393683 0.691576,3.936632 1.995844,7.781706 2.639591,7.781706 0.154407,0 0.254784,-0.918278 0.223042,-2.040613 z m 5.615029,-2.235654 c -0.094,-0.152173 -0.0236,-0.330246 0.15646,-0.395715 0.18009,-0.06546 0.43423,-0.695607 0.56474,-1.400308 0.18386,-0.992776 0.11066,-1.32989 -0.32524,-1.497152 -0.42322,-0.162407 -0.57375,0.02307 -0.60782,0.748951 -0.0826,1.760278 -0.20928,2.372737 -0.76055,3.677919 -0.41326,0.97845 -0.44648,1.39395 -0.13642,1.705753 0.31055,0.312286 0.51537,0.05164 0.84489,-1.075281 0.23922,-0.818122 0.35799,-1.611995 0.26394,-1.764167 z m -13.188483,-4.33185 c 2.668063,-2.447422 2.547812,-2.066837 2.382155,-7.539385 -0.06403,-2.115431 -0.05383,-2.138609 1.564196,-3.548897 2.270383,-1.978912 2.245519,-3.008387 -0.03906,-1.615388 -2.629177,1.603129 -5.516997,6.485147 -8.082069,13.663208 l -1.216612,3.404544 1.487777,-1.074033 c 0.818277,-0.590716 2.57489,-2.071235 3.903584,-3.290049 z m 4.309292,2.45292 c -0.130123,-0.518432 -0.458811,-0.942612 -0.730443,-0.942612 -0.559188,0 -0.584599,0.167344 -0.26677,1.756496 0.196043,0.980235 0.295894,1.066629 0.730442,0.632096 0.327497,-0.327496 0.420695,-0.83269 0.266771,-1.44598 z m 13.904911,-3.870452 c -2.59807,-7.457094 -4.07764,-10.118227 -6.35473,-11.429512 l -1.14434,-0.658976 0.75845,0.853977 c 1.7545,1.975478 3.41736,6.589623 3.4669,9.620155 0.0333,2.034202 0.0392,2.044758 2.50805,4.532687 1.36108,1.371564 2.51442,2.49375 2.56298,2.49375 0.0486,0 -0.76024,-2.43543 -1.79731,-5.412081 z m -8.04921,1.124104 c 2.38901,-5.031013 2.52923,-6.028684 1.22537,-8.719246 l -1.00584,-2.075608 -0.18958,2.306784 c -0.32634,3.970595 -0.76045,0.9206 -0.69976,-4.916317 l 0.0541,-5.19806 -1.51394,-0.111866 -1.513953,-0.111866 0.240684,6.411174 c 0.160566,4.277126 0.120229,6.411176 -0.121163,6.411176 -0.199016,0 -0.361857,-0.638803 -0.361857,-1.419557 0,-0.780767 -0.13506,-1.419569 -0.300144,-1.419569 -0.342767,0 -1.474299,4.84819 -1.474299,6.316813 0,0.986297 2.967313,6.459233 3.502062,6.459233 0.15988,0 1.13116,-1.769881 2.15837,-3.933077 z m -6.083647,-0.264454 c 0.08477,-1.150595 -0.01406,-1.480707 -0.443616,-1.480707 -0.419998,0 -0.552739,0.390646 -0.552739,1.626576 0,2.094574 0.840295,1.971548 0.996355,-0.145869 z m 10.005247,-0.06117 c 0,-0.780753 -0.1597,-1.419556 -0.35489,-1.419556 -0.39265,0 -0.49386,2.226962 -0.1183,2.602531 0.41444,0.41444 0.47319,0.267566 0.47319,-1.182975 z m -9.936934,-2.995618 c 0,-1.326562 -0.505169,-1.953266 -0.850039,-1.054543 -0.403182,1.050667 -0.232163,2.275719 0.31771,2.275719 0.370045,0 0.532329,-0.372283 0.532329,-1.221176 z m 10.004294,-0.02093 c -0.0825,-0.706552 -0.34348,-1.242113 -0.6053,-1.242113 -0.42479,0 -0.41738,0.580951 0.0261,2.040612 0.29134,0.959123 0.71611,0.373597 0.57927,-0.798499 z m -9.714237,-4.122485 c -0.33385,-0.207153 -0.550421,0.02602 -0.757549,0.815816 -0.207129,0.7897 -0.156393,1.188863 0.177446,1.396017 0.333839,0.207152 0.55041,-0.02615 0.757549,-0.815817 0.207117,-0.789714 0.156382,-1.188864 -0.177446,-1.396016 z m 9.446307,2.207996 c 0.40541,-0.655971 -2.36756,-6.780333 -3.06997,-6.780333 -0.55419,0 -0.26165,1.036141 0.42915,1.519995 0.38915,0.27257 0.62271,0.580388 0.51906,0.684046 -0.26343,0.26342 0.59153,2.054643 0.98067,2.054643 0.17538,0 0.21777,0.1636 0.0941,0.36355 -0.12353,0.199963 -0.12031,0.838766 0.006,1.41957 0.22967,1.045637 0.66064,1.35178 1.03966,0.738529 z M 95.545903,70.172459 c 0.108318,-0.536768 0.311486,-1.29535 0.451482,-1.685727 0.196676,-0.548465 0.155727,-0.618816 -0.180183,-0.309562 -0.513904,0.473136 -1.137263,2.971232 -0.74141,2.971232 0.150233,0 0.361782,-0.439174 0.470111,-0.975943 z m 1.992184,-1.884148 c 0.253088,-0.987478 0.365066,-1.890519 0.248839,-2.006745 -0.305713,-0.305713 -1.717784,3.033469 -1.459501,3.451371 0.434237,0.702609 0.759953,0.313948 1.210662,-1.444626 z m 6.986393,-25.020242 c 3.01679,-0.699642 4.32232,-1.373818 4.83367,-2.496113 0.35219,-0.772983 0.28417,-1.006143 -0.53145,-1.821761 -0.82819,-0.828211 -1.04071,-0.887315 -1.85552,-0.516061 -0.50611,0.230601 -1.65419,0.419271 -2.55129,0.419271 -1.45298,0 -1.76823,-0.153718 -2.88699,-1.407729 l -1.25591,-1.407728 -1.743117,1.630483 -1.743109,1.630478 -2.434747,-0.174205 c -2.167911,-0.155111 -2.514313,-0.08951 -3.160778,0.598625 -0.39932,0.425056 -0.726035,1.038331 -0.726035,1.362833 0,2.189647 8.399506,3.493564 14.055276,2.181907 z M 97.924464,36.76419 c 1.896593,-1.993736 2.269676,-4.410224 1.084048,-7.021542 -2.19136,-4.826435 -7.829528,-2.801701 -7.829528,2.811677 0,3.287028 1.657984,5.589299 4.025139,5.589299 1.174317,0 1.625992,-0.229038 2.720341,-1.379434 z m -1.909802,-3.423186 c -0.581455,-1.515237 0.01245,-5.134304 0.84257,-5.134304 1.243133,0 1.200939,5.365737 -0.0441,5.603166 -0.317013,0.06046 -0.676338,-0.150531 -0.798499,-0.468862 z m 11.046778,3.294337 c 1.50943,-1.559579 2.21694,-3.400061 2.21694,-5.766965 0,-3.191385 -1.29675,-5.500799 -3.08874,-5.500799 -3.41131,0 -6.203788,5.843502 -4.69519,9.8251 1.07136,2.827644 3.59387,3.481346 5.56699,1.442664 z m -3.20272,-3.507019 c -0.47062,-0.263381 -0.6122,-0.814353 -0.60805,-2.366304 0.006,-2.27784 0.36614,-3.115936 1.20089,-2.795616 0.44576,0.17106 0.56814,0.75101 0.56814,2.692445 0,2.629553 -0.18224,3.017199 -1.16098,2.469475 z M 90.777351,28.871191 c 1.043744,-2.2237 2.44516,-3.145591 4.78453,-3.147395 1.485159,-0.0012 1.886699,0.164158 2.927845,1.205301 0.663643,0.663645 1.206627,1.462148 1.206627,1.774451 0,0.911199 0.587397,0.655387 1.047907,-0.456359 0.56385,-1.361281 2.41723,-3.229592 3.76633,-3.796674 1.16918,-0.491449 3.3041,-0.210788 4.22777,0.555789 0.81718,0.678206 1.95959,3.333424 1.95959,4.554561 0,0.621537 0.11978,1.127623 0.26616,1.124635 0.92955,-0.01898 1.09643,-0.801213 1.21046,-5.674186 l 0.12031,-5.144532 -2.7217,-0.887225 c -1.49694,-0.487974 -2.84108,-1.007001 -2.98699,-1.153394 -0.14591,-0.146391 -0.51815,-0.267152 -0.8272,-0.268354 -0.30905,-0.0012 -0.99185,-0.226493 -1.51735,-0.500646 -0.91699,-0.478404 -0.95983,-0.460465 -1.06466,0.445799 -0.10506,0.907566 -0.19345,0.944206 -2.27612,0.942895 -1.191791,-7.45e-4 -2.549252,-0.189573 -3.016572,-0.419611 -0.467332,-0.230035 -1.488486,-0.682473 -2.269246,-1.005415 -0.78076,-0.322943 -2.049261,-0.88307 -2.818895,-1.244729 -0.769634,-0.361659 -1.516445,-0.585182 -1.659583,-0.496719 -0.143135,0.08846 -0.112309,0.676662 0.06849,1.307108 0.18081,0.630444 0.328744,2.360247 0.328744,3.844002 0,2.262625 -0.116494,2.80317 -0.722306,3.351417 -0.702281,0.635556 -0.741362,0.634621 -1.409712,-0.03374 -0.393108,-0.393113 -0.81954,-1.52303 -0.99606,-2.639287 l -0.308662,-1.951886 -0.438936,1.06467 c -0.661822,1.605301 -0.1559,9.647449 0.636011,10.110042 1.100729,0.642987 1.646491,0.321984 2.483152,-1.460523 z m 2.842784,-6.712177 c 1.502347,-1.358366 2.527311,-1.784249 2.527311,-1.050116 0,0.195189 -0.154139,0.35489 -0.342542,0.35489 -0.188392,0 -0.888208,0.479102 -1.555132,1.06467 -0.666927,0.58557 -1.431061,1.058121 -1.698078,1.050117 -0.267016,-0.008 0.213782,-0.646809 1.068441,-1.419561 z M 105.8185,21.289645 c -0.8294,-0.457152 -1.70775,-0.902524 -1.9519,-0.989716 -0.24415,-0.08719 -0.33246,-0.278524 -0.19625,-0.425187 0.33452,-0.360202 3.36466,1.134867 3.6133,1.782799 0.10891,0.283814 0.16311,0.504162 0.12045,0.48966 -0.0426,-0.0145 -0.75619,-0.400402 -1.58559,-0.857556 z m -19.680093,0.459013 c 0.628289,-1.230222 1.444672,-3.19497 1.814185,-4.366107 0.789899,-2.503511 0.982055,-2.173951 1.209533,2.074434 0.171819,3.208864 0.652617,4.433131 1.344449,3.423398 0.220694,-0.322105 0.295809,-2.092565 0.19185,-4.521884 -0.109304,-2.554244 -0.04224,-3.992515 0.186174,-3.992515 0.196366,0 1.34246,0.456111 2.546876,1.013581 1.204415,0.557469 2.587705,1.135968 3.073966,1.28555 0.486271,0.149584 1.043828,0.39798 1.239013,0.551992 0.460356,0.363243 4.173247,1.037701 4.522897,0.821601 0.58582,-0.362061 0.19608,-0.894598 -1.32888,-1.815703 -2.189077,-1.322248 -2.10293,-2.141979 0.10634,-1.011957 2.56053,1.309688 13.4527,4.624319 14.48904,4.409206 0.93534,-0.194149 -1.47253,-1.677179 -4.48102,-2.759905 -1.26873,-0.456605 -2.4585,-0.965079 -2.64392,-1.129943 -0.6588,-0.585731 0.85512,-0.292845 3.24883,0.62852 2.22701,0.857197 6.84779,1.661126 6.84779,1.191386 0,-0.111785 -0.19165,-0.394891 -0.42588,-0.629119 -0.51366,-0.513656 -0.13523,-0.537244 1.42774,-0.08899 1.69775,0.486909 1.29147,-0.297913 -0.67419,-1.302377 -1.6039,-0.819599 -6.60358,-2.22851 -7.90812,-2.22851 -0.55526,0 -0.62663,-0.09735 -0.30625,-0.417733 0.32037,-0.320383 0.94607,-0.320383 2.68485,0 2.44765,0.450996 5.65608,0.554979 6.01609,0.194977 0.33463,-0.334642 -2.1137,-1.524712 -4.71224,-2.290494 -6.1683,-1.8177773 -14.948488,-1.0619645 -23.567355,2.028716 -1.387578,0.497578 -3.73122,1.035921 -5.208097,1.196318 -1.95899,0.212758 -3.134776,0.563166 -4.347405,1.295622 -0.914197,0.552196 -1.662177,1.145504 -1.662177,1.318464 0,0.374119 3.399915,-0.02715 4.296739,-0.507116 0.343783,-0.183988 0.895415,-0.334523 1.225846,-0.334523 0.392749,0 -0.2807,0.927973 -1.944871,2.679912 -2.350148,2.474093 -3.928044,4.567799 -3.931277,5.216395 -0.0029,0.596144 0.810608,0.199174 1.818341,-0.887226 0.973456,-1.049448 1.571181,-1.757966 4.168903,-4.941649 1.128617,-1.383194 1.311498,-1.055439 0.460821,0.82587 -1.42074,3.142026 -1.835819,4.312889 -1.835819,5.178523 0,1.288906 0.675796,0.596198 2.057227,-2.108713 z M 113.83156,15.6634 c -1.49715,-0.42217 -2.8413,-0.886794 -2.98699,-1.032498 -0.46799,-0.467985 1.77194,-0.277941 2.75221,0.23351 0.52082,0.271729 1.5988,0.604183 2.39551,0.738788 0.79672,0.134603 1.44857,0.390397 1.44857,0.568429 0,0.443701 -0.46634,0.378037 -3.6093,-0.508229 z M 91.888766,51.059979 c -2.694338,-0.721602 -5.279162,-2.515453 -6.850062,-4.753878 -0.523518,-0.745974 -0.676684,-0.80247 -0.962094,-0.354886 -0.248446,0.389613 -0.340908,0.407144 -0.344886,0.06532 -0.01194,-1.028483 1.853223,-3.614295 2.607057,-3.614295 0.197683,0 -0.08522,0.464117 -0.628685,1.031365 -0.687692,0.717794 -0.919998,1.245959 -0.764085,1.737199 0.3367,1.060838 3.568975,3.934967 5.268657,4.684871 3.522281,1.554024 9.831972,1.788982 14.627592,0.544695 3.29015,-0.853681 7.60339,-3.130876 9.38596,-4.955343 l 1.57838,-1.615496 -1.02372,-1.068535 c -0.56304,-0.587694 -0.84577,-1.068535 -0.62828,-1.068535 0.21752,0 0.88618,0.595339 1.48597,1.322973 0.89205,1.082206 1.08084,1.615052 1.03733,2.927838 -0.0381,1.147868 -0.0929,1.30169 -0.1927,0.540198 -0.25866,-1.97372 -0.40535,-2.018753 -1.74512,-0.535771 -1.61602,1.788735 -6.04753,4.012598 -9.89782,4.967014 -3.48088,0.862855 -10.001024,0.93593 -12.953494,0.145196 z"
       id="path763"
       sodipodi:nodetypes="sssssssssssssscsssscssssssscssssssssssscscsscsssssscsssccsssssssssssssscsscssssscccssssssscssssssssssssscsssssssssscssssssssscssscsssssssscssscsssssssssssssscsscssscsssscssscsssscssscssssssssssscssssscsccssssssscscsssssscsssccssssssscsssscsssssscsscssssssssssssssscssscccsssssscscsssssssssssssssscscssssssscsscsssssscsssssssssssssscsssssssccsssccccssssssssscsscssssssscccscscssccssssscssssssssssscsssscssssssscsssscssssssssscsscsscccssccssssssssssssssssssssssssscssssssssssssssssssssscsssssssssscssssssscsscccssssssssssssssssssssssssssssssssssssssssssssssssssssssscccsssssssssssssssssssscssssssssssssscssssssssssssssscsssssssscsssssssssssssssssssssssssssssssssssssssssssssssssssscsscsssssscssssssscc" />
  </g>
</svg>
